<?xml version="1.0" encoding="UTF-8"?>
<!DOCTYPE svg PUBLIC "-//W3C//DTD SVG 1.1//EN" "http://www.w3.org/Graphics/SVG/1.1/DTD/svg11.dtd">
<!-- Creator: CorelDRAW -->
<svg xmlns="http://www.w3.org/2000/svg" xml:space="preserve" width="80mm" height="120mm" version="1.1" style="shape-rendering:geometricPrecision; text-rendering:geometricPrecision; image-rendering:optimizeQuality; fill-rule:evenodd; clip-rule:evenodd"
viewBox="0 0 8000 12000"
 xmlns:xlink="http://www.w3.org/1999/xlink"
 xmlns:xodm="http://www.corel.com/coreldraw/odm/2003">
 <defs>
  <style type="text/css">
   <![CDATA[
    .str0 {stroke:#191923;stroke-width:7.62;stroke-miterlimit:22.9256}
    .fil16 {fill:#1698F9;fill-rule:nonzero}
    .fil2 {fill:#191923;fill-rule:nonzero}
    .fil18 {fill:#226CBA;fill-rule:nonzero}
    .fil6 {fill:#22A7F0;fill-rule:nonzero}
    .fil24 {fill:#294F91;fill-rule:nonzero}
    .fil3 {fill:#371A45;fill-rule:nonzero}
    .fil19 {fill:#4F80BB;fill-rule:nonzero}
    .fil17 {fill:#5CB7FB;fill-rule:nonzero}
    .fil22 {fill:#6E8EBC;fill-rule:nonzero}
    .fil15 {fill:#7CB5B8;fill-rule:nonzero}
    .fil10 {fill:#857B8C;fill-rule:nonzero}
    .fil21 {fill:#8BCCFC;fill-rule:nonzero}
    .fil9 {fill:#8C7B94;fill-rule:nonzero}
    .fil14 {fill:#96CBDD;fill-rule:nonzero}
    .fil13 {fill:#A5F1F6;fill-rule:nonzero}
    .fil7 {fill:#AFAFB2;fill-rule:nonzero}
    .fil5 {fill:#B9AFBE;fill-rule:nonzero}
    .fil12 {fill:#C3BAC7;fill-rule:nonzero}
    .fil23 {fill:#DB2C2C;fill-rule:nonzero}
    .fil1 {fill:#E3223F;fill-rule:nonzero}
    .fil8 {fill:#E7E7E8;fill-rule:nonzero}
    .fil0 {fill:#F12C4C;fill-rule:nonzero}
    .fil20 {fill:#FF66AC;fill-rule:nonzero}
    .fil11 {fill:#FFE9DE;fill-rule:nonzero}
    .fil4 {fill:white;fill-rule:nonzero}
   ]]>
  </style>
 </defs>
 <g id="Camada_x0020_1">
  <metadata id="CorelCorpID_0Corel-Layer"/>
  <path class="fil0" d="M5517.41 11482.61c-1311.05,728.44 -2964.22,256.32 -3692.83,-1054.74 -126.32,-227.26 -216.42,-464.74 -272.31,-705.91 -24.46,-104.97 -42.39,-210.65 -53.95,-316.34 -111.35,-1017.53 361.56,-2049.47 1280.93,-2611.89 32.75,-20.29 66.12,-39.7 100.06,-58.53 98.42,-54.71 198.78,-102.57 300.49,-143.64 353.4,-143.82 723.85,-207.4 1088.53,-197.77 23.56,0.61 47.15,1.64 70.71,2.82 387.82,20.31 767.46,123.78 1111.81,302.39 457.34,237.05 852.23,606.78 1121.28,1090.79 148.41,267.12 246.97,548.35 298.74,833.26 202.52,1113.14 -309.54,2279.49 -1353.46,2859.56z"/>
  <path class="fil0" d="M1569.28 8952.32c47.51,-798.75 455.11,-1561.15 1150.72,-2034.96 -0.83,7.06 -1.22,14.11 -1.22,21.23 0,45.07 16.65,88.36 47.29,128.64 -665.49,444.41 -1083.02,1137.98 -1196.79,1885.09zm4606.42 -1625.24c-221.15,-202.89 -471.62,-365.93 -739.99,-485.83 12.06,-23.49 19.51,-47.76 21.86,-72.64 266.13,141.23 510.01,328.69 718.13,558.47z"/>
  <path class="fil1" d="M4048.83 11641.69c-899.46,-50.45 -1754.24,-547.1 -2224.25,-1392.82 -2.18,-3.94 -4.33,-7.88 -6.52,-11.78 -179.3,-378.71 -260.71,-781.82 -252.94,-1178.86 56.42,222.98 142.42,442.37 259.46,652.95 446.88,804.13 1241.73,1292.68 2092,1382.15 -24.71,115.15 -17.54,230.83 26.6,338.63 -8.59,3.65 -12.9,13.42 -9.7,22.29 24.95,69.11 65.19,132.55 115.35,187.44zm1892.4 -628.69c7.59,-53.52 8.73,-108.12 1.18,-161.54 -8.3,-61.4 -27.78,-120.77 -56.03,-174.47 -3.86,-7.34 -11.45,-11.77 -19.47,-11.77 -2.51,0 -5.05,0.42 -7.52,1.32 -0.62,0.25 -1.18,0.47 -1.76,0.75 -14.86,-30.25 -32.33,-58.86 -52.2,-85.71 553.93,-405.57 916.72,-993.47 1050.8,-1632.69 17.73,307.61 -18.66,614.72 -105.08,907.05 -160.04,441.8 -434.67,843.83 -809.92,1157.06z"/>
  <path class="fil0" d="M3522.18 7802.75c-286.6,14.22 -489.07,-83.49 -452.18,-218.25 36.84,-134.76 299.06,-255.52 585.62,-269.77 286.59,-14.21 489.06,83.49 452.18,218.25 -36.84,134.76 -299.06,255.52 -585.62,269.77z"/>
  <path class="fil2" d="M4082.45 7160.39c45.08,32.4 84.82,76.72 106.58,131.78 5.48,13.68 9.71,27.89 12.79,42.36 3.47,14.5 3.43,29.39 4.93,44.21 1.33,29.69 -2.64,59.54 -10.38,88.11 -16.18,57.07 -47.65,107.55 -84.99,150.73 -37.92,42.86 -81.52,80.02 -128.93,110.27 -47.36,30.15 -97.24,56.57 -149.65,75.87 -12.89,5.55 -26.13,9.88 -39.38,14.18 -13.29,4.22 -26.42,9.02 -39.85,12.78 -27.03,6.69 -53.74,15.07 -81.27,19.44 -54.57,11.53 -110.35,15.71 -166.09,18.33 -55.89,0.1 -112.13,-1.83 -167.7,-12.21 -55.45,-10.35 -110.49,-25.31 -163.18,-48.51 -52.35,-23.77 -102.93,-55.06 -144.75,-98.42 -41.81,-42.71 -74.32,-98.92 -84.56,-160.57 -11.14,-61.51 1.39,-125.06 27.23,-178.23 25.96,-53.56 63.38,-98.67 105.59,-136.23 20.83,-19.33 43.75,-35.44 66.41,-51.84 23.77,-14.57 46.94,-30.07 72.03,-41.81 24.28,-13.33 50.13,-23.1 75.3,-34.02 25.99,-8.77 51.38,-19.26 78.05,-25.48 52.38,-15.84 106.51,-23.46 160.14,-29.73 7.34,-0.86 13.96,4.38 14.78,11.68 0.83,6.8 -3.61,12.99 -10.09,14.53l-0.75 0.18 -38.38 9.2c-12.81,2.9 -25.53,6.13 -37.99,10.31l-37.56 11.24 -36.76 13.47 -18.33 6.73 -17.84 7.84 -35.61 15.64c-22.88,12.14 -46.33,23.02 -67.85,37.13 -22.34,12.79 -42.86,28.04 -63.69,42.68 -19.59,16.15 -39.42,31.9 -56.67,50.09 -34.95,35.58 -65.2,75.32 -83.68,118.86 -18.79,43.35 -24.38,89.79 -15.64,133.25 8.63,43.58 32.55,83.28 65.87,115.64 33.45,32.34 74.98,58.15 119.79,77.95 45.22,19.29 93.81,32 143.18,40.67 49.55,8.34 100.21,11.1 150.88,11.21 50.65,-2.16 101.67,-5.49 151.61,-15.8 100.43,-16.82 197.59,-52.23 284.6,-102.93 43.75,-25.16 83.16,-56.64 117.64,-91.83 34.41,-35.16 62.94,-75.9 78.63,-120.83 7.84,-22.42 12.92,-45.65 13.64,-69.25 -0.43,-11.7 0.89,-23.7 -1.04,-35.44 -1.65,-11.73 -4.05,-23.41 -7.34,-34.94 -13.61,-46.04 -43.07,-88.11 -80.6,-122.62 -6.76,-6.16 -7.22,-16.65 -1.03,-23.42 5.73,-6.27 15.18,-7.09 21.91,-2.25z"/>
  <path class="fil2" d="M3711.39 8026.59c-85.74,50.52 -187.74,73.61 -288.35,73.46 -50.48,0.44 -100.81,-5.87 -150.26,-15.75 -49.3,-10.81 -97.6,-26.24 -143.78,-46.73 -92.05,-40.8 -178.19,-98.95 -243.89,-177.78 -32.9,-39.1 -60.33,-83.71 -77.47,-132.54 -16.87,-48.7 -23.63,-101.51 -14.96,-151.37 1.28,-7.31 8.23,-12.21 15.53,-10.93 6.12,1.04 10.53,6.09 11.11,11.96l0 0.29c8.62,92.04 56.49,170.81 120.18,232.89 63.98,62.15 141.66,110.7 224.73,145.75 83.2,34.84 171.74,58.04 261.96,65.41 90.26,7.49 181.73,0 272.03,-25.06l0.25 -0.04c8.84,-2.47 18.05,2.73 20.51,11.6 2.08,7.45 -1.24,15.11 -7.59,18.84z"/>
  <path class="fil1" d="M2725.9 9415.1c-13.07,286.65 -129.6,478.9 -260.21,429.39 -130.64,-49.49 -225.98,-322.01 -212.87,-608.65 13.06,-286.63 129.56,-478.88 260.2,-429.37 130.65,49.51 225.95,322 212.88,608.63z"/>
  <path class="fil2" d="M2139.71 8796.3c36.55,-41.78 84.46,-77.15 141.35,-93.58 14.14,-4.16 28.68,-7.03 43.39,-8.71 14.75,-2.07 29.58,-0.6 44.47,-0.67 29.68,1.5 59,8.27 86.71,18.68 55.27,21.52 102.54,57.65 141.99,98.92 39.06,41.82 71.9,88.76 97.49,138.85 25.53,50.01 47.09,102.18 61.29,156.2 4.3,13.32 7.38,26.92 10.39,40.53 2.93,13.64 6.44,27.17 8.95,40.88 4.08,27.53 9.88,54.92 11.6,82.75 6.26,55.42 5.15,111.34 2.44,167.08 -5.2,55.64 -12.46,111.46 -28.08,165.76 -15.57,54.25 -35.69,107.59 -63.83,157.86 -28.61,49.84 -64.59,97.24 -111.7,134.72 -46.51,37.59 -105.55,64.59 -167.92,68.92 -62.26,5.26 -124.34,-13.28 -174.79,-44.07 -50.87,-30.9 -92.22,-72.47 -125.58,-118.05 -17.26,-22.55 -31.16,-46.92 -45.3,-71.03 -12.24,-25.06 -25.49,-49.58 -34.79,-75.68 -10.93,-25.45 -18.2,-52.09 -26.68,-78.2 -6.27,-26.73 -14.28,-52.97 -17.97,-80.11 -10.74,-53.63 -13.21,-108.27 -14.35,-162.26 -0.15,-7.38 5.69,-13.46 13.02,-13.61 6.84,-0.14 12.57,4.88 13.5,11.47l0.11 0.75 5.54 39.08c1.65,13.01 3.66,25.96 6.63,38.78l7.62 38.45 9.88 37.88 5.02 18.87 6.08 18.55 12.18 36.91c9.91,23.95 18.54,48.33 30.54,71.1 10.59,23.45 23.8,45.33 36.37,67.45 14.25,21.02 28.03,42.29 44.51,61.19 32.11,38.17 68.77,72.03 110.38,94.59 41.38,22.81 87.07,32.79 131.17,28.21 44.18,-4.44 85.97,-24.45 121.33,-54.57 35.38,-30.21 65.03,-69.09 89.01,-111.84 23.52,-43.18 40.78,-90.33 54.1,-138.66 13.03,-48.52 20.54,-98.67 25.49,-149.11 2.69,-50.63 4.23,-101.73 -1.28,-152.42 -7.2,-101.6 -33.23,-201.71 -75.41,-293.11 -20.91,-45.93 -48.47,-88.15 -80.23,-125.85 -31.76,-37.59 -69.6,-69.88 -112.85,-89.75 -21.52,-9.92 -44.21,-17.19 -67.59,-20.16 -11.71,-0.68 -23.53,-3.15 -35.41,-2.33 -11.82,0.51 -23.66,1.8 -35.48,3.97 -47.12,9.18 -91.81,34.52 -129.71,68.57 -6.81,6.16 -17.26,5.62 -23.42,-1.18 -5.69,-6.31 -5.62,-15.79 -0.18,-22.02z"/>
  <path class="fil2" d="M2966.74 9248.02c42.15,90.15 55.43,193.87 45.72,294.01 -4.36,50.29 -15.43,99.82 -29.96,148.11 -15.5,48.01 -35.41,94.66 -60.18,138.67 -49.41,87.78 -115.47,167.97 -200.21,225.9 -42.04,29 -89.04,52.06 -139.27,64.48 -50.09,12.17 -103.33,13.89 -152.13,0.54 -7.16,-1.97 -11.38,-9.38 -9.41,-16.54 1.64,-5.98 7.09,-9.88 12.99,-9.88l0.29 0c92.44,0.22 175.39,-39.99 243.24,-97.49 67.95,-57.76 123.66,-130.5 166.45,-209.84 42.6,-79.52 74.1,-165.43 90.03,-254.55 16.05,-89.15 17.26,-180.91 0.94,-273.21l-0.08 -0.22c-1.57,-9.09 4.48,-17.72 13.54,-19.33 7.59,-1.35 14.89,2.69 18.04,9.35z"/>
  <path class="fil1" d="M4454.26 9462.76c-234.01,0 -436.19,-140.46 -475.1,-345.35 -44.68,-235.43 143.17,-466.79 419.53,-516.8 35.8,-6.48 71.39,-9.6 106.23,-9.6 234,0 436.17,140.46 475.1,345.35 44.68,235.43 -143.15,466.78 -419.54,516.8 -35.8,6.49 -71.39,9.6 -106.22,9.6z"/>
  <path class="fil0" d="M4469.75 8892.68c206.95,40.35 344.07,207.87 306.26,374.13 -37.81,166.3 -236.22,268.38 -443.16,228.03 -206.97,-40.39 -344.1,-207.9 -306.29,-374.17 37.81,-166.3 236.23,-268.38 443.19,-227.99z"/>
  <path class="fil2" d="M4561.27 9456.17c101.07,-25.24 195.37,-73.39 268.45,-143.21 72.96,-69.13 124.66,-160 136.61,-256.02 12.4,-95.81 -16.82,-193.76 -76.32,-268.7 -59.19,-76.11 -147.91,-127.56 -242.42,-153.94 -190.08,-52.09 -412.23,2.53 -550.21,146.47 -69.56,70.7 -114.89,165.43 -119.33,264.82 -1.9,24.88 0.86,49.7 3.48,74.68 3.82,24.81 10.41,49.16 19,72.97 8.78,23.73 19.95,46.72 33.41,68.53 12.78,22.34 30.1,41.56 45.97,62.25l1.22 1.55c4.47,5.83 3.36,14.14 -2.47,18.61 -5.38,4.16 -12.97,3.52 -17.58,-1.29 -19.13,-19.73 -39.89,-38.45 -56.47,-61 -16.92,-22.2 -31.43,-46.41 -43.67,-71.86 -24.67,-50.91 -37.17,-107.69 -38.63,-164.91 -2.72,-114.89 43.71,-229.56 120.76,-314.16 38.09,-42.68 81.99,-80.49 131.03,-110.02 49.16,-29.32 101.97,-51.98 156.71,-68.42 55.1,-14.97 111.84,-23.48 169.2,-24.81 57.28,-0.18 114.71,6.41 170.6,20.62 55.92,14.28 109.34,38.42 158.64,69.18 49.02,31.11 94.34,69.7 129.99,116.89 71.22,93.8 105.76,217.71 85.11,334.18 -9.6,58.1 -31.61,113.06 -61.26,162.47 -30.36,49.04 -68.84,92.08 -112.1,128.57 -87.57,71.85 -194.69,116.13 -303.85,129.14 -9.09,1.1 -17.37,-5.41 -18.44,-14.51 -1.01,-8.37 4.48,-16.07 12.46,-18.04l0.11 -0.04z"/>
  <path class="fil2" d="M3808.21 8885.2c-32.69,96.69 -41.28,199.74 -20.67,296.73 5.13,24.2 13.18,47.65 19.59,71.35l14.36 34.01c4.72,11.31 9.02,22.84 15.64,33.26 12.07,21.38 22.85,43.39 38.1,62.8 7.23,9.88 13.74,20.26 21.48,29.78l24.34 27.58 12.14 13.78c4.3,4.37 8.98,8.38 13.47,12.57l26.95 25.06c8.74,8.56 19.26,15.21 28.79,22.95 9.88,7.26 19.22,15.32 29.5,22.05 41.35,26.68 84.38,51.12 130.57,68.81 91.33,37.77 190.39,56.28 289.63,57.82 198.53,2.83 400.35,-64.26 550.96,-195.44 74.65,-65.52 138.42,-145.47 177.52,-237.76 39.23,-91.95 54.66,-194.41 42.64,-296.34l-0.04 -0.22c-0.86,-7.3 4.41,-13.96 11.71,-14.82 6.77,-0.78 12.96,3.62 14.54,10.07 25.77,104.54 18.51,217.71 -16.83,321.42 -35.98,103.8 -100.46,196.71 -180.01,272.21 -79.53,75.91 -175.33,134.44 -278.26,172.89 -103,38.67 -212.95,57.35 -323.11,57 -110.17,-0.79 -220.37,-23.2 -322.55,-65.88 -101.5,-43.57 -196.05,-107.83 -267.05,-194.34 -71.35,-85.34 -121.4,-190.14 -135.51,-300.34 -14.64,-109.88 4.04,-222.69 51.45,-319.57 4.01,-8.23 13.96,-11.67 22.2,-7.67 7.55,3.69 11.06,12.43 8.45,20.24z"/>
  <path class="fil1" d="M5437.02 7716.07c-4.36,0 -8.73,-0.07 -13.16,-0.28 -148.9,-6.09 -266.3,-114.07 -262.18,-241.16 3.97,-123.34 120.93,-219.37 263.92,-219.37 4.38,0 8.74,0.11 13.14,0.29 148.94,6.09 266.34,114.1 262.22,241.2 -4.01,123.3 -120.94,219.32 -263.94,219.32z"/>
  <path class="fil1" d="M5441.75 7415.01c102.51,44.86 154.13,147.51 115.29,229.24 -38.81,81.74 -153.42,111.64 -255.92,66.77 -102.5,-44.85 -154.13,-147.5 -115.28,-229.24 38.81,-81.74 153.41,-111.63 255.91,-66.77z"/>
  <path class="fil2" d="M5424.21 7709.7c54.06,-4.58 105.76,-20.15 148.25,-48.12 42.47,-27.38 75.59,-66.74 90.2,-110.63 14.53,-43.89 10.66,-91.79 -9.78,-132.57 -19.7,-41.53 -56.46,-75.11 -98.78,-98.06 -85.32,-45.84 -199.13,-44.68 -282.38,7.8 -41.78,25.78 -74.93,65.09 -89.57,112.13 -15.93,47.09 -10.42,101.04 13.07,149.69 3.22,6.66 0.39,14.72 -6.27,17.94 -5.73,2.76 -12.42,1.07 -16.25,-3.65 -37.92,-46.73 -56.68,-112.96 -44.86,-176.58 11.02,-63.76 49.66,-122.26 101.79,-159.96 25.84,-19.12 54.27,-35.09 84.67,-45.5 30.4,-10.36 62.01,-16.62 93.98,-19.23 31.94,-1.87 64.04,0.32 95.66,6.51 31.51,6.8 62.27,17.37 91.37,31.98 57.6,30 108.01,77.83 136.87,139.48 27.75,61.75 31.22,136.15 4.08,198.38 -13.14,31.12 -32.55,58.64 -55.42,81.81 -23.27,22.84 -50.01,41.03 -78.26,54.99 -57.11,26.78 -120.47,35.77 -179.73,26.67 -9.1,-1.4 -15.33,-9.92 -13.93,-19.01 1.18,-7.73 7.56,-13.42 15.04,-14.07l0.25 0z"/>
  <path class="fil2" d="M5106.36 7339c-24.7,47.02 -38.27,97.67 -36.85,147.65 0.3,12.43 2.12,24.82 3.02,37.02 3.04,12.07 4.33,24.28 8.48,35.91 3.94,11.6 6.92,23.41 12.57,34.41 2.57,5.55 4.72,11.24 7.59,16.65l9.24 15.85c5.4,10.93 14.1,20.05 20.61,30.33 7.52,9.67 15.72,18.86 23.92,28 17.54,17.33 36.13,33.73 56.96,47.22 40.71,28.43 87.54,48.05 136.19,59.93 97.6,23.71 204.65,13.9 294.7,-32.11 44.6,-23.23 86.06,-54.35 117.1,-94.81 31.26,-40.2 52.42,-88.61 61.01,-141.49l0.08 -0.28c1.17,-7.34 8.05,-12.28 15.35,-11.1 6.27,1.01 10.82,6.2 11.25,12.24 4.25,58.44 -11.29,119.08 -41.33,171.61 -30.53,52.37 -75.49,95.94 -127.06,127.88 -51.44,32.44 -110.08,52.95 -170.16,61.97 -60.19,9.14 -121.65,5.91 -181.2,-7.23 -59.54,-13.53 -116.36,-39.38 -166.55,-74.97 -49.41,-36.45 -92.91,-83.17 -120.19,-139.55 -27.85,-55.68 -40.99,-119.47 -33.76,-180.87 7.16,-61.23 32.72,-119.23 71.89,-163.2 6.12,-6.87 16.65,-7.51 23.52,-1.39 5.87,5.23 7.16,13.61 3.69,20.22l-0.07 0.11z"/>
  <path class="fil2" d="M6031.03 8177.99c-30.55,14.47 -59.3,31.87 -85.72,51.81 -25.7,20.95 -50.66,42.46 -71.39,67.71 -42.78,49.12 -73.72,107.22 -92.36,168.76 -18.3,61.73 -25.42,126.82 -20.23,191.3 3.93,64.55 20.11,128.24 44.53,188.46 48.51,121.08 135.59,226.85 244.17,301.35 108.95,74.18 242.17,115.64 378.65,106.54l0.25 -0.03c7.38,-0.47 13.75,5.08 14.25,12.46 0.43,6.59 -3.97,12.39 -10.17,13.89 -69.89,17.07 -144.46,19.07 -216.46,6.05 -71.86,-13.46 -142.49,-38.45 -205.72,-76.54 -127.56,-74.61 -229.92,-191.87 -287.17,-329.64 -28.89,-68.7 -45.72,-142.67 -49.91,-217.49 -3.04,-74.83 6.66,-150.91 33.09,-221.55 50.48,-141.99 171.31,-258.13 312.94,-294.22 8.88,-2.3 17.97,3.07 20.27,11.99 2.01,7.81 -1.98,15.82 -9.02,19.15z"/>
  <path class="fil1" d="M6311.75 9116.59c-150.26,0 -301.17,-112.1 -367.12,-287.81 -81.7,-217.62 -2.25,-450.41 177.44,-519.96 34.58,-13.39 70.35,-19.77 106.19,-19.77 150.26,0 301.13,112.1 367.11,287.82 81.71,217.6 2.22,450.39 -177.47,519.95 -34.58,13.39 -70.35,19.77 -106.15,19.77z"/>
  <path class="fil0" d="M6339.96 9055.4c-122.23,21.38 -260.36,-41.67 -347.13,-171.35 -115.47,-172.74 -96.21,-398.22 43.03,-503.77 19.65,-14.93 40.67,-26.64 62.61,-35.19 95.88,22.01 189,85.81 255.27,184.77 117.29,175.44 108.48,400.34 -13.78,525.54z"/>
  <path class="fil2" d="M6553.56 8515.33c-50.13,-56.9 -111.99,-101.65 -180.62,-125.78 -68.03,-24.73 -142.46,-28.71 -207.83,-7.88 -65.67,20.16 -120.37,66.59 -152.16,125.67 -32.16,59.47 -40.36,131.17 -28.9,199.74 23.23,137.91 129.39,262.25 264.61,306.86 67.42,21.62 142.14,24.03 208.8,-2.08 67.07,-25.2 123.67,-78.18 156.21,-146.43 3.18,-6.69 11.17,-9.52 17.83,-6.33 5.98,2.87 8.88,9.59 7.12,15.75l-0.03 0.11c-22.56,79.05 -81.27,149.69 -158.39,187.82 -77.23,38.7 -169.28,43.93 -252.12,21.91 -167.34,-44.11 -300.31,-189.9 -331.67,-362.17 -15.44,-85.86 -3.62,-178.44 39.67,-257.5 22.27,-39.02 52.63,-73.6 88.14,-100.82 34.76,-28.03 76.58,-48.01 119.33,-58.4 42.93,-11.02 87.36,-13.7 130.32,-8.83 43,5.11 84.46,17.36 122.91,35.04 76.62,36.16 140.81,94.2 183.55,163.84 4.81,7.84 2.37,18.04 -5.43,22.83 -7.02,4.31 -15.93,2.8 -21.17,-3.14l-0.17 -0.21z"/>
  <g id="_1325744043536">
   <g>
    <path class="fil1" d="M4269.59 6547.18c-60.13,23.42 -120.3,46.77 -180.46,70.15 2.46,48.22 4.9,96.45 7.28,144.68 39.46,-20.79 77.11,-44.24 109.14,-75.58 26.04,-25.46 47.09,-54.13 58.02,-89.23 4.97,-15.98 8.1,-33.27 6.02,-50.02z"/>
    <path class="fil1" d="M4208.15 6576.24c-4.46,0 -8.92,0.03 -13.39,0.05 24.95,-9.7 49.89,-19.4 74.83,-29.11 1.23,9.88 0.64,19.95 -1.07,29.83 -20.11,-0.46 -40.23,-0.77 -60.37,-0.77z"/>
   </g>
   <g>
    <path class="fil1" d="M5545.38 7542.72c106.56,0 193.26,-86.71 193.26,-193.27 0,-70.37 -57.27,-127.64 -127.64,-127.64l-2771.95 0c-70.38,0 -127.64,57.26 -127.64,127.64 0,106.57 86.7,193.27 193.27,193.27l2640.7 0zm-2706.33 -244.02l2771.95 0c27.98,0 50.73,22.78 50.73,50.75 0,64.16 -52.19,116.37 -116.35,116.37l-2640.7 0c-64.18,0 -116.37,-52.19 -116.37,-116.37 0,-27.97 22.77,-50.75 50.74,-50.75z"/>
    <g>
     <path class="fil1" d="M3230.25 7542.72c58.19,-31.28 128.61,-57.73 205.95,-76.9l513.84 0c57.96,19 102.85,45.29 130.54,76.9l-850.33 0z"/>
     <path class="fil1" d="M4082.45 7279.32c8.41,6.04 16.64,12.51 24.6,19.38l-49.78 0c-2.16,-5.67 -1.12,-12.33 3.27,-17.13 5.73,-6.27 15.18,-7.08 21.91,-2.25zm121.58 186.5c1.36,10.54 1.65,21.22 2.72,31.86 0.67,15.03 -0.01,30.11 -1.86,45.04l-60.66 0c3.62,-14.68 5.86,-29.63 6.32,-44.72 -0.4,-10.62 0.66,-21.48 -0.58,-32.18l54.06 0zm-1251 76.9c5.19,-18.54 12.04,-36.43 20.23,-53.27 3.9,-8.07 8.08,-15.94 12.48,-23.63l84.46 0c-11.76,17.31 -21.9,35.35 -29.85,54.09 -3.26,7.52 -6.12,15.14 -8.58,22.81l-78.74 0zm196.56 -244.02c22.26,-13.77 44.13,-28.11 67.69,-39.14 24.28,-13.32 50.13,-23.1 75.3,-34.02 3.6,-1.22 7.19,-2.46 10.78,-3.73l136.35 0 -18.93 5.66 -36.76 13.47 -18.33 6.73 -17.84 7.84 -35.61 15.65c-17.44,9.24 -35.21,17.77 -52.2,27.54l-110.45 0z"/>
     <path class="fil1" d="M5170.01 7542.72c8.51,-28.25 23.18,-54.23 42.69,-76.9l332.68 0c27.08,0 52.03,-9.3 71.82,-24.88 20.27,16.83 37.53,36.26 51.02,57.6 -33.42,27.59 -76.23,44.18 -122.84,44.18l-375.37 0z"/>
     <path class="fil1" d="M5441.75 7533.94c6.21,2.72 12.23,5.65 18.06,8.78l-222.41 0c53.5,-34.85 131.94,-40.47 204.35,-8.78z"/>
     <path class="fil1" d="M5641.55 7517.05c-14.49,-22.39 -34.03,-41.97 -56.38,-58.24 29.46,-10.75 53.38,-33.09 66.24,-61.46 20.69,16.93 39.38,36.57 55.11,58.66 -16.6,25.03 -38.87,46 -64.97,61.04zm-395.87 -51.23c-24.87,20.81 -45,47.01 -57.53,76.9l-59.6 0c5.16,-27.04 15.28,-53.07 29.25,-76.9l87.88 0z"/>
     <path class="fil1" d="M5102.33 7465.82c-12.31,24.9 -21.49,50.74 -26.99,76.9l-54.98 0c8.97,-27.57 21.75,-53.59 37.82,-76.9l44.15 0z"/>
    </g>
   </g>
   <path class="fil1" d="M2790.47 7358.36c1.74,-1.13 3.53,-2.19 5.34,-3.19 -1.94,-1.91 -3.84,-3.86 -5.69,-5.86 0,0.05 0,0.1 0,0.14 0,2.98 0.12,5.94 0.35,8.91zm2869.1 -0.03c0.24,-2.95 0.35,-5.91 0.35,-8.88 0,-0.06 0,-0.13 0,-0.2 -1.47,1.6 -2.96,3.16 -4.49,4.69 -0.4,0.41 -0.81,0.81 -1.22,1.21 1.82,0.99 3.61,2.06 5.36,3.18z"/>
   <g>
    <path class="fil1" d="M5652.84 7356.47c-28.97,27.77 -67.32,43.09 -107.46,43.09l-2640.66 0c-40.18,0 -78.49,-15.36 -107.54,-43.07 -2.23,1.22 -4.42,2.52 -6.54,3.92 5.58,58.57 55.11,103.6 114.04,103.6l2640.7 0c58.94,0 108.45,-45.04 114.01,-103.63 -2.13,-1.4 -4.31,-2.71 -6.55,-3.91z"/>
    <g>
     <path class="fil1" d="M3443.7 7464.01c66.8,-16.05 138.56,-26.7 211.92,-30.34 112.31,-5.58 211.69,6.04 288.82,30.34l-500.74 0z"/>
     <path class="fil1" d="M4184.13 7399.56c1.72,3.8 3.35,7.64 4.9,11.55 5.48,13.67 9.71,27.89 12.78,42.35 0.84,3.5 1.47,7.01 1.98,10.55l-54.06 0 -0.22 -1.46c-1.65,-11.73 -4.05,-23.41 -7.34,-34.94 -2.81,-9.53 -6.31,-18.89 -10.42,-28.05l52.38 0zm-1197.35 64.45c13.46,-23.18 29.07,-44.63 46.2,-64.45l92.47 0 -1.42 1.49c-19.38,19.73 -37.31,40.74 -52.59,62.96l-84.66 0z"/>
     <path class="fil1" d="M5214.3 7464.01c23.59,-26.83 54.02,-48.9 89.06,-64.45l242.02 0c1.34,0 2.69,-0.02 4.03,-0.05 24.44,10.6 46.77,24.23 66.35,40.25 -19.51,15.22 -44,24.25 -70.38,24.25l-331.08 0z"/>
     <path class="fil1" d="M5583.37 7457.51c-9.34,-6.67 -19.14,-12.77 -29.27,-18.26 -85.32,-45.83 -199.13,-44.68 -282.37,7.8 -8.32,5.13 -16.3,10.8 -23.85,16.96l-89.01 0c14.49,-24.25 32.99,-46.16 54.34,-64.45l332.17 0c28.26,0 55.64,-7.59 79.47,-21.78 8.63,5.7 17.02,11.84 25.11,18.38 -12.82,28.63 -37.02,50.91 -66.59,61.35z"/>
     <path class="fil1" d="M5106.35 7457.93c-1.06,2.02 -2.1,4.05 -3.11,6.08l-43.8 0c6.14,-8.75 12.74,-17.11 19.78,-25.01 6.12,-6.88 16.65,-7.52 23.52,-1.4 5.87,5.23 7.16,13.61 3.69,20.23l-0.08 0.1z"/>
    </g>
   </g>
   <g>
    <path class="fil1" d="M2797.49 7354.27c12.88,-6.7 27.09,-10.13 41.61,-10.13l2771.9 0c14.48,0 28.68,3.41 41.53,10.11 0.54,-0.52 1.08,-1.05 1.61,-1.58 1.95,-1.96 3.85,-3.97 5.69,-6.03 -1.46,-25.8 -22.94,-46.13 -48.83,-46.13l-2771.95 0c-25.93,0 -47.4,20.37 -48.85,46.2 2.35,2.6 4.79,5.12 7.29,7.56z"/>
    <g>
     <path class="fil1" d="M4109.13 7300.51c14.94,13.11 28.89,27.67 41.32,43.63l-52.55 0c-10.88,-13.89 -23.1,-26.99 -36.32,-39.15 -1.45,-1.32 -2.61,-2.84 -3.48,-4.48l51.03 0zm-1020.11 43.63c18,-15.44 37.21,-29 56.23,-42.77l1.4 -0.86 110.28 0c-4.24,2.5 -8.43,5.08 -12.54,7.77 -18.89,10.81 -36.47,23.38 -54.04,35.86l-101.33 0z"/>
     <path class="fil1" d="M5305.95 7344.14c2.77,-1.05 5.55,-2.06 8.35,-3.02 30.39,-10.36 62,-16.61 93.97,-19.23 31.95,-1.86 64.05,0.32 95.67,6.51 18.32,3.96 36.38,9.19 54.01,15.74l-252 0z"/>
    </g>
   </g>
   <g>
    <path class="fil1" d="M5545.38 7503.37c85,0 153.89,-68.92 153.89,-153.92 0,-48.75 -39.51,-88.29 -88.27,-88.29l-2771.95 0c-48.76,0 -88.28,39.53 -88.28,88.29 0,85 68.91,153.92 153.91,153.92l2640.7 0z"/>
    <g>
     <path class="fil1" d="M3316.52 7503.37c98.03,-37.93 216.32,-63.6 339.1,-69.7 162.05,-8.04 297.18,19.71 377.38,69.7l-716.48 0z"/>
     <path class="fil1" d="M4082.45 7279.32c45.08,32.4 84.82,76.73 106.58,131.79 5.48,13.67 9.71,27.89 12.78,42.35 3.48,14.5 3.44,29.4 4.94,44.22 0.09,1.9 0.15,3.79 0.19,5.69l-56.63 0c0.1,-1.79 0.18,-3.58 0.24,-5.37 -0.43,-11.71 0.89,-23.71 -1.04,-35.45 -1.65,-11.73 -4.05,-23.41 -7.34,-34.94 -13.61,-46.04 -43.07,-88.11 -80.59,-122.62 -6.77,-6.16 -7.23,-16.65 -1.04,-23.42 5.73,-6.27 15.18,-7.08 21.91,-2.25zm-1115.55 224.05c2.02,-4.72 4.14,-9.36 6.36,-13.92 25.95,-53.57 63.37,-98.68 105.58,-136.23 20.83,-19.34 43.75,-35.45 66.41,-51.85 22.71,-13.91 44.86,-28.68 68.67,-40.21l121.07 0 -22.75 10c-22.88,12.13 -46.33,23.02 -67.85,37.12 -22.34,12.79 -42.86,28.04 -63.69,42.68 -19.59,16.15 -39.42,31.9 -56.67,50.09 -30.47,31.03 -57.37,65.21 -76.01,102.32l-81.12 0z"/>
     <path class="fil1" d="M5186.58 7503.37c42.25,-76.92 133.55,-129.18 239.02,-129.18 4.38,0 8.74,0.11 13.14,0.29 84,3.44 157.96,39.29 205.75,92.7 -26.77,22.57 -61.35,36.19 -99.11,36.19l-358.8 0z"/>
     <path class="fil1" d="M5616.59 7485.92c-17.92,-18.43 -39.38,-34.14 -62.49,-46.67 -85.32,-45.83 -199.13,-44.68 -282.37,7.8 -23.86,14.72 -44.9,33.86 -61.29,56.32l-70.69 0c17.71,-46.5 49.81,-87.77 89.88,-116.75 25.84,-19.12 54.27,-35.08 84.67,-45.5 30.39,-10.36 62,-16.61 93.97,-19.23 31.95,-1.86 64.05,0.32 95.67,6.51 31.51,6.81 62.27,17.37 91.37,31.98 31.1,16.2 60.1,37.6 84.75,63.57 -14.61,26.36 -36.73,47.98 -63.47,61.97z"/>
     <path class="fil1" d="M5106.35 7457.93c-7.79,14.83 -14.47,30.02 -19.92,45.44l-50.16 0c11.48,-23.52 25.93,-45.27 42.95,-64.37 6.12,-6.88 16.65,-7.52 23.52,-1.4 5.87,5.23 7.16,13.61 3.69,20.23l-0.08 0.1z"/>
    </g>
   </g>
   <g>
    <path class="fil1" d="M5151.62 6684.9c17.88,6.69 35.67,13.58 53.41,20.64 -59.71,214.96 -52.03,432.76 56.75,640.63 7.33,14.01 1.92,31.3 -12.07,38.64 -4.1,2.15 -8.63,3.26 -13.26,3.26 -10.64,0 -20.42,-5.89 -25.37,-15.35 -73.09,-139.64 -105.88,-290.73 -98.92,-448.2 3.58,-81.18 17.55,-161.48 39.46,-239.62z"/>
    <path class="fil1" d="M5190.46 6764.2c-17.82,-7.07 -35.71,-13.94 -53.67,-20.62 9.85,-43.77 22.31,-86.96 36.99,-129.39 17.89,6.57 35.72,13.28 53.47,20.22 -14.94,43.12 -27.29,86.42 -36.79,129.79z"/>
    <path class="fil1" d="M5229 7387.08l0.63 -0.46c11.23,-8.31 22.94,-16.02 35.1,-22.94 -1.32,8.72 -6.62,16.72 -15.02,21.13 -4.1,2.15 -8.63,3.26 -13.26,3.26 -2.55,0 -5.06,-0.34 -7.45,-0.99z"/>
   </g>
   <g>
    <path class="fil1" d="M3239.32 6687.1c17.84,-6.77 35.72,-13.35 53.63,-19.72 24.82,83.64 40.66,169.88 44.52,257.14 6.95,157.47 -25.85,308.55 -98.92,448.2 -4.95,9.47 -14.73,15.35 -25.37,15.35 -4.63,0 -9.14,-1.12 -13.23,-3.26 -14.02,-7.34 -19.43,-24.62 -12.09,-38.64 111.91,-213.8 116.82,-438.14 51.46,-659.07z"/>
    <path class="fil1" d="M3310.62 6733.87c-17.94,6.51 -35.85,13.22 -53.71,20.14 -9.9,-43.14 -22.61,-86.2 -37.85,-129.07 17.83,-6.82 35.69,-13.46 53.6,-19.9 14.96,42.23 27.75,85.24 37.96,128.83z"/>
    <path class="fil1" d="M3229.67 7253.11c20.58,-10.2 41.98,-18.48 62.91,-27.57 2.56,-0.86 5.11,-1.74 7.67,-2.63 -6.88,22.43 -14.7,44.64 -23.45,66.6 -11.07,5.84 -21.96,11.93 -32.41,18.77 -19.7,11.28 -37.98,24.46 -56.3,37.46 16.03,-30.68 29.84,-61.57 41.58,-92.63z"/>
   </g>
   <g>
    <path class="fil1" d="M2195.93 7392.68c14.21,-15.5 28.56,-30.9 43.17,-46.11 31.14,25.66 70.78,40.48 112.7,40.48l66.67 -0.01c38.9,-9.15 62.95,-37.26 79.06,-72.47 27.06,-59.14 34.32,-142.32 31.49,-228.94 20.03,-15.56 40.37,-30.83 60.93,-45.9 7.27,110.76 1.23,221.76 -35.04,301.06 -25.39,55.51 -65.8,96.16 -126.64,108.7 -2.1,0.44 -4.23,0.66 -6.37,0.66l-70.1 0c-58.22,0 -113.2,-21.11 -155.87,-57.47z"/>
    <path class="fil1" d="M2592.59 7128.83c-22.08,17.05 -43.78,34.45 -65.2,52.11 4.05,-53.4 2.15,-111.65 -2.95,-168.88 19.46,-14.83 39.17,-29.42 59.11,-43.8 5.94,53.05 9.6,107.79 9.04,160.57zm-282.84 253.15c-16.17,16.72 -32.12,33.62 -47.8,50.71 -42.21,-17.04 -79.08,-45.87 -105.79,-83.39 14.54,-15.97 29.25,-31.82 44.2,-47.49 24.45,40.37 64.04,69.08 109.39,80.17z"/>
    <path class="fil1" d="M2261.87 7432.66c15.67,-17.09 31.56,-34 47.72,-50.71 13.63,3.34 27.78,5.1 42.21,5.1l66.67 -0.01c38.9,-9.15 62.95,-37.26 79.06,-72.47 16.88,-36.9 26.04,-83.17 29.87,-133.78 21.41,-17.64 43.13,-35.01 65.19,-52.05 -0.83,79.29 -11.19,154.13 -37.68,212.05l-1.01 2.17c-41.92,34.2 -82.64,69.49 -122.15,105.77 -1.16,0.27 -2.31,0.52 -3.48,0.76 -2.1,0.44 -4.23,0.66 -6.37,0.66l-70.1 0c-31.39,0 -61.84,-6.14 -89.93,-17.49z"/>
   </g>
   <g>
    <path class="fil1" d="M2438.65 7159.12c28.59,-24.26 57.74,-48.03 87.51,-71.24l31.88 -2.88c0.47,-0.04 0.93,-0.07 1.4,-0.09 0.65,21.09 0.74,42.21 0.08,63.31l-120.87 10.9z"/>
    <path class="fil1" d="M2432.04 7159.72l127.48 -11.5c0.66,-21.1 0.57,-42.22 -0.08,-63.31 -0.47,0.02 -0.93,0.05 -1.4,0.09l-58.89 5.33c-16.25,29.03 -38.13,53.12 -67.11,69.39z"/>
   </g>
   <g>
    <path class="fil1" d="M2217.96 7368.91c68.35,-72.76 141.18,-142.16 218.34,-207.79l123.17 -11.08c-2.15,63.47 -11.5,140.11 -43.67,195.94l-0.06 0 -0.19 0.41 -0.05 0 -0.25 0.51c-0.19,0.36 -0.24,0.43 -0.33,0.58 -21.72,36.63 -51.8,61.68 -93.12,70.23l-70 -0.01c-49.97,0 -97.1,-17.87 -133.84,-48.79zm310.8 -283.08c9.86,-7.66 19.82,-15.22 29.81,-22.76 0.32,6.68 0.59,13.36 0.81,20.03 -0.5,0.02 -1,0.05 -1.5,0.1l-29.12 2.63z"/>
    <path class="fil1" d="M2559.28 7155.17c-97.89,78.14 -189.13,162.33 -273.42,251.81 -43.54,-14.55 -81.4,-43.26 -107.09,-82 46.74,-50.11 95.52,-98.68 146.32,-145.58l50.39 0c18.43,-3.21 36.19,-8.89 52.53,-17.54l131.46 -11.82 -0.19 5.13zm-30.13 -146.67c-6.36,28.31 -15.64,55.6 -28.94,79.91l57.67 -5.21c0.5,-0.05 1,-0.08 1.5,-0.1 -1,-30.88 -3.19,-61.82 -6.27,-92.68 -8.05,5.97 -16,12.03 -23.96,18.08z"/>
    <path class="fil1" d="M2285.75 7406.95c84.34,-89.54 175.58,-173.85 273.54,-252.03 -2.46,62.48 -12.14,136.65 -43.49,191.06l-0.06 0 -0.19 0.41 -0.05 0 -0.25 0.51c-0.19,0.36 -0.24,0.43 -0.33,0.58 -21.72,36.63 -51.8,61.68 -93.12,70.23l-70 -0.01c-22.85,0 -45.11,-3.74 -66.05,-10.75z"/>
   </g>
   <g>
    <path class="fil1" d="M2438.63 7159.13c28.6,-24.26 57.76,-48.03 87.53,-71.25l31.88 -2.88c17.29,-1.55 32.7,11.3 34.26,28.59 1.56,17.27 -11.31,32.7 -28.58,34.26l-125.09 11.28z"/>
    <path class="fil1" d="M2588.15 7132.21c-6.11,4.74 -12.06,9.63 -18.12,14.41 -2.02,0.62 -4.13,1.03 -6.31,1.23l-226.63 20.45c26.32,-24.02 53.23,-47.53 80.61,-70.63l140.34 -12.67c17.29,-1.55 32.7,11.3 34.26,28.59 0.6,6.72 -0.98,13.17 -4.15,18.62z"/>
    <path class="fil1" d="M2569.64 7146.74c6.14,-4.86 12.3,-9.69 18.49,-14.5 -4.01,6.89 -10.57,12.2 -18.49,14.5z"/>
   </g>
   <g>
    <path class="fil1" d="M2217.98 7368.9c103.44,-110.13 217.12,-212.57 340.6,-305.84 7.3,149.54 -10.54,328.58 -136.82,354.65l-69.96 -0.01c-49.97,0 -97.09,-17.88 -133.82,-48.8z"/>
    <path class="fil1" d="M2559.26 7155.19c-97.88,78.13 -189.12,162.32 -273.39,251.79 -43.54,-14.56 -81.39,-43.28 -107.08,-82.01 112.98,-121.16 237.89,-233.34 374.32,-334.55 4.98,49.72 8.43,107.73 6.15,164.77z"/>
    <path class="fil1" d="M2285.76 7406.94c84.33,-89.53 175.56,-173.83 273.51,-252.01 -4.89,123.21 -36.51,241.93 -137.51,262.78l-69.96 -0.01c-22.85,0 -45.11,-3.75 -66.04,-10.76z"/>
   </g>
   <g>
    <path class="fil1" d="M5846.12 7068.34c20.85,15.9 41.5,32.12 61.93,48.66 -0.2,75.1 8.29,145.6 32.07,197.57 16.12,35.22 40.15,63.32 79.01,72.46l66.75 0.02c31.51,0 61.75,-8.38 88.04,-23.45 14.67,15.56 29.18,31.32 43.51,47.28 -38.35,25.11 -83.87,39.27 -131.55,39.27l-70.13 0c-2.13,0 -4.28,-0.22 -6.37,-0.66 -60.81,-12.56 -101.27,-53.2 -126.66,-108.7 -33.14,-72.47 -41.03,-171.41 -36.6,-272.45z"/>
    <path class="fil1" d="M6166.6 7436.16c-16.08,-17.57 -32.35,-34.92 -48.85,-52 46.55,-8.52 87.95,-35.44 114.55,-74.6 14.73,15.53 29.29,31.26 43.7,47.18 -28.17,36.49 -66.27,64.01 -109.4,79.42zm-255.41 -243.93c-21.74,-18.12 -43.73,-35.87 -65.98,-53.24 -1.12,-53.02 2.19,-108.29 7.93,-162.04 19.93,14.5 39.68,29.26 59.25,44.31 -4.83,58.32 -6.2,117.37 -1.2,170.97z"/>
    <path class="fil1" d="M6165.37 7436.59l1.32 -0.46c-16.08,-17.58 -32.38,-34.9 -48.88,-51.98 -3.34,0.61 -6.7,1.13 -10.09,1.55 19.42,16.67 38.65,33.63 57.65,50.89zm-320.16 -297.7c0.35,16.64 1.14,33.06 2.42,49.14 23.34,15.64 46.47,31.66 69.37,48.05 -2.49,-14.13 -4.41,-28.82 -5.82,-43.96 -21.73,-18.12 -43.73,-35.86 -65.97,-53.23z"/>
   </g>
   <g>
    <path class="fil1" d="M5878.01 7093c25.68,20.2 51.04,40.88 76.06,62.07l-75.95 -6.85c-0.55,-18.4 -0.55,-36.82 -0.11,-55.22z"/>
    <path class="fil1" d="M6005.62 7159.72c-28.98,-16.27 -50.84,-40.38 -67.12,-69.39l-58.93 -5.33c-0.44,-0.03 -0.89,-0.07 -1.34,-0.09 -0.65,21.09 -0.75,42.21 -0.11,63.31l127.5 11.5z"/>
   </g>
   <g>
    <path class="fil1" d="M5956.43 7157.08c83.68,71.02 163.49,147.59 238.89,229.5 -32.23,19.95 -69.95,31.12 -109.44,31.12l-70.04 0.01c-39.33,-8.15 -68.68,-31.25 -89.91,-64.93 -0.04,-0.11 -0.12,-0.27 -0.27,-0.48 -0.42,-0.67 -0.45,-0.75 -0.56,-0.9l-0.12 -0.3 -0.23 -0.26c-34.6,-56.46 -44.37,-135.92 -46.58,-200.8l78.26 7.04z"/>
    <path class="fil1" d="M6142.26 7409.92c-82.74,-87.96 -170.8,-169.45 -263.41,-244.22 -0.28,-5.3 -0.5,-10.52 -0.68,-15.66l131.48 11.82c16.33,8.64 34.08,14.32 52.51,17.54l37.89 0c52.94,48.8 104.16,99.89 153.56,153.17 -27.44,37.61 -66.76,64.8 -111.35,77.35zm-258.59 -410.52c-2.62,27.88 -4.48,55.82 -5.38,83.7 0.48,0.02 0.96,0.06 1.45,0.1l57.7 5.21c-11.43,-20.86 -19.88,-43.92 -26.07,-67.93 -9.2,-7.07 -18.42,-14.13 -27.7,-21.08z"/>
    <path class="fil1" d="M5878.84 7165.59c0.79,15.01 2.02,30.61 3.9,46.37 88.19,61.1 173.16,127.6 254.38,199.34 1.75,-0.45 3.5,-0.92 5.23,-1.41 -82.76,-88 -170.86,-169.5 -263.51,-244.3z"/>
   </g>
   <g>
    <path class="fil1" d="M5868.88 7085.89c28.81,22.44 57.23,45.5 85.2,69.19l-80.12 -7.23c-17.29,-1.56 -30.17,-16.98 -28.62,-34.26 1.21,-13.58 11.02,-24.44 23.54,-27.7z"/>
    <path class="fil1" d="M6005.72 7096.39l-126.15 -11.39c-17.25,-1.55 -32.69,11.33 -34.23,28.59 -1.55,17.28 11.33,32.7 28.62,34.26l212.8 19.2c-26.57,-24.17 -53.65,-47.63 -81.04,-70.66z"/>
   </g>
   <g>
    <path class="fil1" d="M5877.98 7092.97c112.49,88.44 218.7,186.44 317.33,293.6 -32.22,19.95 -69.93,31.13 -109.43,31.13l-70.09 0c-117.88,-24.34 -141.2,-182.15 -137.81,-324.73z"/>
    <path class="fil1" d="M6142.26 7409.92c-82.72,-87.97 -170.79,-169.43 -263.39,-244.2 -3,-57 0.01,-115.54 4.8,-166.33 131.9,98.79 255.82,210.06 369.93,333.17 -27.44,37.6 -66.75,64.8 -111.34,77.36z"/>
    <path class="fil1" d="M6137.12 7411.29c1.75,-0.44 3.49,-0.91 5.23,-1.4 -82.75,-87.99 -170.84,-169.49 -263.48,-244.28 0.82,15.64 2.08,31.16 3.9,46.37 88.17,61.09 173.13,127.58 254.35,199.31z"/>
   </g>
   <g>
    <path class="fil1" d="M2260.46 7324.72c19.99,-20.34 40.34,-40.4 61.04,-60.17 8.74,27.03 18.16,54.06 28.84,80.04 5,12.13 11.64,28.18 19.21,39.02l0.19 0.27 0.31 0.09c53.44,14.96 131.27,13.03 187,10.5 57.45,-2.62 116.56,-7.72 173.49,-15.84l0.25 -0.01c181.65,-24.55 364.61,-45.45 546.84,-64.56 161.14,-16.9 322.59,-32 484.19,-43.75 151.59,-11.02 304.99,-19.84 457.01,-19.84 152.01,0 305.41,8.82 457,19.83 161.6,11.75 323.05,26.85 484.19,43.74 128.65,13.5 257.2,28.19 385.58,43.99 53.69,6.61 107.62,13.12 161.2,20.58l0.28 0.04c57.07,7.95 115.99,13.1 173.52,15.74 55.71,2.55 133.59,4.53 187,-10.42l0.32 -0.09 0.19 -0.27c7.35,-10.58 13.77,-25.98 18.67,-37.81 6.97,-16.83 13.38,-34.11 19.41,-51.55 20.25,20 40.22,40.35 59.9,61.06 -8.3,21.74 -17.58,42.93 -28.06,61.06 -9.58,16.56 -21.35,32.63 -40.27,38.79 -66.89,21.79 -169.03,19.14 -240.31,15.13 -53.58,-3.01 -107.87,-8.13 -161.07,-15.48 -54.13,-7.48 -108.55,-14.11 -162.77,-20.78 -127.63,-15.7 -255.42,-30.3 -383.31,-43.71 -159.63,-16.74 -319.57,-31.69 -479.65,-43.33 -149.87,-10.9 -301.53,-19.63 -451.82,-19.63 -150.3,0 -301.98,8.73 -451.86,19.63 -160.09,11.64 -320.03,26.59 -479.66,43.33 -127.88,13.41 -255.66,28.01 -383.29,43.71 -54.23,6.67 -108.64,13.3 -162.76,20.78 -79.68,11 -163.64,17.99 -243.97,17.99 -49.12,0 -110.55,-2.37 -157.41,-17.64 -19.26,-6.28 -31.25,-23.03 -40.9,-39.91 -15.07,-26.38 -27.68,-58.95 -38.52,-90.53z"/>
    <path class="fil1" d="M2349.25 7341.92c-19.63,19.44 -38.93,39.14 -57.87,59.12 -18.79,-37.36 -33.52,-83.33 -45.74,-121.42 -1.95,-6.06 -3.87,-12.14 -5.78,-18.22 20.3,-20.42 40.93,-40.57 61.94,-60.42 2.68,8.94 5.39,17.86 8.13,26.77 11.74,38.12 24.26,77.15 39.32,114.17zm3792.62 67.58c-18.77,-19.95 -37.8,-39.58 -57.11,-58.86l2.02 -4.84c15.04,-36.34 27.49,-74.78 39.14,-112.32 2.42,-7.77 4.8,-15.56 7.16,-23.36 20.88,19.88 41.38,40.23 61.7,60.83 -1.52,4.75 -3.04,9.49 -4.58,14.23 -12.71,39.21 -28.23,87.13 -48.33,124.32z"/>
    <g>
     <path class="fil1" d="M2291.37 7401.02c18.94,-19.98 38.23,-39.71 57.86,-59.16l1.11 2.73c5,12.13 11.64,28.18 19.21,39.02l0.19 0.27 0.31 0.09c34.25,9.59 78.52,12.24 120.57,12.24 -27.43,23.78 -54.32,48.03 -80.65,72.73 -24.69,-2.6 -48.88,-6.87 -70.09,-13.78 -19.26,-6.28 -31.25,-23.03 -40.9,-39.91 -2.61,-4.57 -5.14,-9.32 -7.61,-14.23zm3848.28 12.51c0.76,-1.35 1.51,-2.72 2.26,-4.1 -18.77,-19.95 -37.81,-39.57 -57.12,-58.85 -1.54,3.68 -3.21,7.58 -4.98,11.47 20.16,16.85 40.11,34.01 59.84,51.48z"/>
     <path class="fil1" d="M4082.45 7279.32c19.57,14.07 38.14,30.39 54.67,48.86 -17.14,0.34 -34.3,0.77 -51.46,1.29 -7.56,-8.52 -15.62,-16.69 -24.08,-24.48 -6.77,-6.16 -7.23,-16.65 -1.04,-23.42 5.73,-6.27 15.18,-7.08 21.91,-2.25zm-1066.56 141.24c18.91,-24.73 40.23,-47.13 62.95,-67.34 7.66,-7.12 15.61,-13.79 23.72,-20.2 41.17,-4.62 82.33,-9.11 123.47,-13.5 -15.48,10.03 -30.33,20.89 -45.33,31.44 -19.59,16.15 -39.42,31.9 -56.67,50.09 -2.57,2.61 -5.1,5.25 -7.61,7.9 -33.52,3.79 -67.03,7.66 -100.53,11.61z"/>
     <path class="fil1" d="M5290.74 7405.53c39.51,-19.96 85.64,-31.34 134.86,-31.34 4.38,0 8.74,0.11 13.14,0.29 71.75,2.93 136.18,29.53 183.23,70.51 -29.45,-3.73 -58.94,-7.34 -88.36,-10.96 -80.9,-9.95 -161.86,-19.46 -242.87,-28.5z"/>
     <path class="fil1" d="M5547.25 7435.71c-57.6,-28.76 -127.06,-36.78 -191.12,-22.78 -46.73,-5.36 -93.48,-10.57 -140.24,-15.63 4.47,-3.72 9.04,-7.29 13.74,-10.68 25.84,-19.12 54.27,-35.08 84.67,-45.5 8.21,-2.8 16.52,-5.3 24.89,-7.51 68.85,7.82 137.65,15.96 206.41,24.42 19.56,2.41 39.14,4.8 58.73,7.23 39.59,22.21 75.32,52.97 102.33,90.94 -3.43,-0.45 -6.86,-0.92 -10.28,-1.39 -49.59,-6.85 -99.42,-12.99 -149.13,-19.1z"/>
    </g>
   </g>
   <g>
    <path class="fil1" d="M2560.09 7061.92c50.2,-37.86 102.03,-74.19 155.44,-108.92 6.89,-0.89 13.77,-1.81 20.62,-2.77 10.05,-2.59 20.05,-5.34 30.05,-7.96l41.73 281.52c-57.54,14.24 -98.33,66.2 -98.33,125.66 0,10 0.76,19.98 2.26,29.86 -70.92,8.99 -145.2,14.84 -216.62,14.84 -5.88,0 -11.76,-0.05 -17.64,-0.15 15.7,-12.28 28.32,-27.76 38.35,-44.77 -0.01,0.05 0.07,-0.04 0.18,-0.22 0.06,-0.11 0.1,-0.18 0.13,-0.23 0.04,-0.06 0.07,-0.11 0.1,-0.18 0.38,-0.61 0.48,-0.79 0.54,-0.94 0.12,-0.18 0.17,-0.27 0.21,-0.35 32.59,-56.2 42.04,-133.4 44.17,-197.43l2.6 -0.23c18.31,-1.59 31.86,-17.95 30.22,-36.23 -1.54,-17.19 -15.94,-30.35 -33.2,-30.35 -0.05,0 -0.1,0 -0.14,0 -0.15,-7.04 -0.37,-14.09 -0.67,-21.15zm3122.2 -109.12c63.22,41.16 124.88,85.09 184.79,131.69 -12.69,3.84 -22.3,15.1 -23.55,28.93 -1.65,18.28 11.98,34.62 30.27,36.23l2.55 0.23c2.17,65.29 12.02,145.06 46.71,201.68l0.11 0.23 0.15 0.23c0.12,0.16 0.2,0.28 0.27,0.37 0.04,0.1 0.08,0.18 0.14,0.27 0.06,0.1 0.11,0.19 0.16,0.24 0.06,0.15 0.15,0.29 0.26,0.44 0.03,0.03 0.06,0.07 0.09,0.09 0.03,0.08 0.07,0.15 0.12,0.23 9.68,15.34 21.4,29.18 35.68,40.34 -5.87,0.1 -11.75,0.15 -17.62,0.15 -67.74,0 -137.24,-5.33 -204.48,-13.33 1.68,-10.37 2.51,-20.86 2.51,-31.37 0,-59.47 -40.79,-111.42 -98.34,-125.66l40.18 -270.99z"/>
    <path class="fil1" d="M2774.79 7000.22c-63.35,40.9 -124.56,84.03 -183.31,129.45 2.15,-4.96 3.14,-10.51 2.62,-16.25 -1.54,-17.19 -15.94,-30.35 -33.2,-30.35 -0.05,0 -0.1,0 -0.14,0 -0.66,-31.14 -2.84,-62.55 -5.99,-93.91 11.04,-8.17 22.23,-16.2 33.42,-24.23 49.36,-2.98 99.43,-7.87 147.96,-14.7 10.05,-2.59 20.05,-5.34 30.05,-7.96l8.59 57.95zm-208.11 149.07l-5.53 4.4 0.13 -3.81 2.6 -0.23c0.95,-0.08 1.87,-0.2 2.8,-0.36zm3310.27 14.87c-65.8,-53.02 -133.86,-102.65 -203.93,-148.82l10.36 -69.91c5.99,1.58 12.01,3.13 18.03,4.79 43.92,6.19 89.1,10.78 133.86,13.8 15.68,11.22 31.28,22.56 46.75,34.12 -2.68,28.37 -4.54,56.77 -5.11,84.94 -0.05,-0.01 -0.13,-0.01 -0.21,-0.01 -17.21,0 -31.62,13.2 -33.17,30.35 -1.65,18.28 11.98,34.62 30.27,36.23l2.55 0.23c0.16,4.69 0.35,9.46 0.6,14.28z"/>
    <path class="fil1" d="M2561.16 7153.41l5.14 -4.06c11.49,-1.85 20.82,-9.58 25.21,-19.76 41.67,-32.2 84.5,-63.33 128.49,-93.3 -0.83,7.06 -1.22,14.11 -1.22,21.23 0,45.08 16.65,88.36 47.3,128.64 -96.29,64.3 -187.36,133.85 -273.09,207.99 -5.13,-0.01 -10.26,-0.06 -15.39,-0.15 15.7,-12.28 28.32,-27.76 38.35,-44.77 -0.01,0.05 0.07,-0.04 0.18,-0.22 0.06,-0.11 0.1,-0.18 0.13,-0.23 0.04,-0.06 0.07,-0.11 0.1,-0.18 0.38,-0.61 0.48,-0.79 0.54,-0.94 0.12,-0.18 0.17,-0.27 0.21,-0.35 31.99,-55.18 41.69,-130.58 44.05,-193.9zm3319.56 57.15c-1.83,-15.81 -3.03,-31.45 -3.78,-46.5 -65.78,-53.01 -133.86,-102.63 -203.92,-148.78l-8.88 59.89c74.05,41.66 146.33,86.81 216.58,135.39z"/>
   </g>
   <g>
    <path class="fil1" d="M2291.56 7293.59c144.78,-142.54 307.63,-270.77 487.69,-380.92 32.75,-20.3 66.12,-39.71 100.07,-58.54 98.41,-54.7 198.77,-102.56 300.48,-143.64 244.98,-99.7 498.16,-160.83 751.92,-185.74 89.51,40.55 187.16,62.25 287.11,62.25 96.79,0 191.45,-20.36 278.63,-58.48 332.47,37.02 656.09,135.2 953.39,289.42 250.46,129.81 482.18,299.43 684.77,505.81 -19.91,55.07 -37.19,89.82 -50.02,93.99 -92.03,29.98 -286,11.49 -383.83,-1.95 -52.7,-7.23 -105.61,-13.78 -158.4,-20.3 -127.57,-15.78 -255.3,-30.44 -383.14,-43.89 -160.77,-16.92 -321.86,-32.01 -483.1,-43.73 -152.03,-11.06 -305.84,-19.86 -458.3,-19.86 -152.47,0 -306.28,8.8 -458.32,19.86 -161.24,11.72 -322.33,26.81 -483.1,43.73 -127.84,13.45 -255.57,28.11 -383.14,43.89 -52.8,6.52 -105.7,13.07 -158.41,20.3 -97.78,13.43 -291.8,31.92 -383.78,1.95 -15.03,-4.9 -36.17,-51.72 -60.52,-124.15z"/>
    <path class="fil1" d="M4108.47 6578.12c-402.35,15.17 -806.92,122.51 -1182.29,331.08 -228.74,127.11 -431.16,283.46 -605.51,461.61 -14.61,-33.01 -31.35,-81.61 -49.27,-140.49 172.4,-167.92 369.36,-316.1 589.58,-438.48 309.35,-171.89 637.66,-278.24 968.84,-323.8 84.02,56.25 179,93.96 278.65,110.08zm2004.63 801.28c-476.31,-490.4 -1121.37,-771.22 -1788.68,-800.53 99.95,-15.46 195.29,-52.6 279.76,-108.4 580.68,83.27 1130.61,348.36 1559.22,769.23 -18.44,59.9 -35.56,108.44 -50.3,139.7z"/>
    <g>
     <path class="fil1" d="M2320.61 7370.66c120,-122.61 253.32,-234.87 399.39,-334.37 -0.83,7.06 -1.22,14.11 -1.22,21.23 0,45.08 16.65,88.36 47.3,128.64 -112.82,75.33 -218.48,157.84 -316.77,246.55 -37.53,-1.96 -71.4,-6.55 -97.23,-14.97 -8.65,-2.81 -19.33,-19.63 -31.47,-47.08zm3788.75 16.45c1.24,-2.44 2.5,-5.09 3.77,-7.79 -193.84,-199.58 -415.66,-364.46 -655.56,-491.78 -2.35,24.88 -9.8,49.15 -21.86,72.64 241.87,108.07 469.22,251.18 673.65,426.93z"/>
     <path class="fil1" d="M4082.45 7279.32c4.67,3.36 9.28,6.84 13.82,10.46 -13.33,0.36 -26.66,0.79 -39.99,1.26 0.35,-3.41 1.77,-6.74 4.26,-9.47 5.73,-6.27 15.18,-7.08 21.91,-2.25zm-1027.92 96.95c7.88,-7.98 16,-15.66 24.31,-23.05 20.83,-19.34 43.75,-35.45 66.41,-51.85 23.77,-14.56 46.94,-30.07 72.03,-41.81 24.28,-13.32 50.13,-23.1 75.3,-34.02 25.98,-8.77 51.38,-19.26 78.05,-25.48 52.38,-15.83 106.51,-23.46 160.14,-29.72 7.34,-0.86 13.96,4.37 14.78,11.67 0.83,6.81 -3.61,12.99 -10.09,14.54l-0.75 0.17 -38.38 9.21c-12.82,2.9 -25.52,6.12 -37.99,10.31l-37.56 11.23 -36.76 13.47 -18.33 6.73 -17.84 7.84 -35.61 15.65c-22.88,12.13 -46.33,23.02 -67.85,37.12 -22.34,12.79 -42.86,28.04 -63.69,42.68 -5.18,4.27 -10.36,8.5 -15.52,12.76 -36.89,4.09 -73.78,8.28 -110.65,12.55z"/>
     <path class="fil1" d="M5386.34 7376.65c12.81,-1.62 25.92,-2.46 39.26,-2.46 4.38,0 8.74,0.11 13.14,0.29 35.22,1.44 68.67,8.59 99.18,20.33 -50.51,-6.23 -101.03,-12.29 -151.58,-18.16z"/>
     <path class="fil1" d="M5265.93 7363c15.46,-8.71 31.61,-16.14 48.37,-21.88 30.39,-10.36 62,-16.61 93.97,-19.23 31.95,-1.86 64.05,0.32 95.67,6.51 31.51,6.81 62.27,17.37 91.37,31.98 25.83,13.46 50.22,30.49 71.86,50.76 -41.23,-5.44 -82.56,-10.55 -123.8,-15.65 -92.41,-11.43 -184.89,-22.27 -277.44,-32.49z"/>
    </g>
   </g>
  </g>
  <path class="fil2" d="M4208.15 6457.3c-434.97,0 -875.59,107.16 -1281.97,332.97 -1276.49,709.35 -1737.94,2324.95 -1028.59,3601.48 709.3,1276.54 2324.92,1737.95 3601.45,1028.6 1276.5,-709.31 1737.96,-2324.92 1028.6,-3601.45 -483.51,-870.14 -1388.24,-1361.6 -2319.49,-1361.6zm9.13 5430.27c-978.55,0 -1929.02,-516.3 -2437.09,-1430.61 -745.27,-1341.23 -260.43,-3038.76 1080.79,-3784.05 1341.29,-745.3 3038.76,-260.43 3784.06,1080.79 745.22,1341.23 260.42,3038.76 -1080.81,3784.02 -426.91,237.22 -890.04,349.85 -1346.95,349.85z"/>
  <path class="fil0" d="M5583.03 10395.19c127.78,67.27 227.52,165.41 283.3,290.71 101.04,227.07 29.43,477.96 -155.38,698.87 -121.23,144.89 -293.4,271.13 -502.52,355.87 -527.86,213.88 -1091.47,82.45 -1258.81,-293.58 -62.26,-139.91 -60.89,-293.96 -7.41,-443.3 90.22,-252.01 333.86,-477.1 665.32,-611.43l975.5 2.86z"/>
  <path class="fil3" d="M5886.38 10676.99c28.25,53.7 47.73,113.07 56.03,174.47 8.66,61.36 5.91,124.27 -4.97,185.31 -22.81,122.37 -78.77,235.51 -150.08,334.21 -70.57,99.78 -159.9,185.71 -257.28,258.39 -98.35,71.89 -206.29,129.74 -319.25,173.71 -225.91,86.46 -475.99,119.79 -716.08,72.21 -119.54,-23.41 -236.23,-68.38 -337.19,-138.38 -100.28,-70.2 -182.95,-168.76 -224.08,-282.66 -3.3,-9.19 1.46,-19.36 10.67,-22.65 8.33,-3.05 17.47,0.6 21.58,8.16l0.04 0.14c54.2,99.5 136.01,179.41 232.03,234.29 95.85,55.53 203.86,88.08 313.64,104.18 110.11,14.97 222.64,15.29 333.17,-0.67 110.41,-15.61 219.61,-42.93 323.36,-84.89 104.26,-40.32 203.79,-92.8 294.66,-157.1 91.47,-63.7 173.35,-139.73 242.81,-226.49 68.56,-87.03 125.05,-184.24 153.05,-290.03 29.26,-105.22 26.21,-218.72 -12.21,-324.37l-0.03 -0.11c-4.16,-11.41 1.75,-24.01 13.14,-28.17 10.45,-3.8 21.94,0.86 26.99,10.45z"/>
  <path class="fil1" d="M4785.11 11647.7c-331.68,0 -601.66,-168.02 -643.19,-425.59 -50.2,-311.15 252.01,-635.16 674.98,-723.7 72.82,-15.25 144.5,-22.52 213.49,-22.52 331.7,0 601.65,167.99 643.22,425.58 50.16,311.13 -252.01,635.14 -674.98,723.71 -72.82,15.25 -144.54,22.52 -213.52,22.52z"/>
  <path class="fil0" d="M4843.64 10801.22c363.04,-48.14 669.26,100.61 684.01,332.32 14.75,231.68 -267.55,458.56 -630.55,506.71 -363.04,48.16 -669.3,-100.6 -684.05,-332.32 -14.75,-231.67 267.59,-458.55 630.59,-506.71z"/>
  <path class="fil3" d="M4385.84 11590.48c-33.84,-16.36 -66.73,-35.51 -97.02,-58.74 -30.26,-23.21 -57.86,-50.31 -82.1,-80.41 -48.37,-60.29 -80.78,-134.38 -92.33,-212.13 -11.07,-77.87 -1.51,-157.89 23.23,-231.5 24.95,-73.72 63.23,-142.03 110.16,-202.79 93.77,-122.23 220.04,-215.13 357.02,-280.55 137.67,-64.15 288.28,-102.89 441.63,-105.21 76.54,-0.9 153.58,6.62 228.73,25.38 75.04,18.44 148.3,48.58 213.78,92.65 65.55,43.65 122.59,102.9 161.11,173.26 38.99,69.99 57.64,151.01 55.42,230.13 -1.96,79.26 -23.27,156.31 -57.53,225.2 -33.98,69.17 -79.13,131.61 -131.61,185.98 -105.58,108.34 -235.76,188.86 -375.24,238.63 -6.95,2.47 -14.58,-1.15 -17.08,-8.09 -2.33,-6.56 0.89,-13.75 7.05,-16.65 131.04,-60.51 252.05,-143.39 344.13,-251.37 46.15,-53.49 85.5,-112.56 113.07,-176.18 27.7,-63.37 44.28,-131.11 43.57,-198.31 -0.25,-67.13 -18.55,-132.72 -51.52,-190.11 -33.01,-57.35 -81.13,-105.83 -137.98,-142.07 -114.1,-72.81 -255.45,-102.82 -394.29,-99.45 -139.45,2.9 -278.8,36.7 -406.18,95.73 -127.63,57.93 -244.02,142.39 -332.21,249.94 -44.25,53.53 -79.88,113.74 -104.25,177.76 -24.64,63.9 -35.7,132.72 -29.18,200.17 6.01,67.38 29.78,133.76 69.63,190.18 39.89,56.43 94.16,103.22 155.41,139.27l0.22 0.1c7.88,4.66 10.49,14.79 5.87,22.67 -4.4,7.48 -13.82,10.2 -21.51,6.51z"/>
  <g id="_2555867375232">
   <path class="fil4" d="M5170.81 6375.03l-1941.43 0c-332.97,0 -605.39,-272.42 -605.39,-605.4l0 -1715.29c0,-332.98 272.42,-605.39 605.39,-605.39l1941.43 0c332.98,0 605.39,272.41 605.39,605.39l0 1715.29c0,332.98 -272.41,605.4 -605.39,605.4z"/>
   <path class="fil2" d="M5170.81 3353.26l-1941.43 0c-94.29,0 -185.96,18.63 -272.47,55.39 -83.39,35.41 -158.32,86.04 -222.76,150.45 -64.41,64.45 -115.05,139.38 -150.45,222.76 -36.78,86.51 -55.39,178.18 -55.39,272.48l0 1715.29c0,94.3 18.61,185.98 55.39,272.5 35.4,83.37 86.04,158.3 150.45,222.75 64.44,64.4 139.37,115.03 222.76,150.48 86.51,36.73 178.18,55.35 272.47,55.35l1941.43 0c94.3,0 185.96,-18.62 272.48,-55.35 83.37,-35.45 158.31,-86.08 222.73,-150.48 64.44,-64.45 115.07,-139.38 150.48,-222.75 36.74,-86.52 55.39,-178.2 55.39,-272.5l0 -1715.29c0,-94.3 -18.65,-185.97 -55.39,-272.48 -35.41,-83.38 -86.04,-158.31 -150.48,-222.76 -64.42,-64.41 -139.36,-115.04 -222.73,-150.45 -86.52,-36.76 -178.18,-55.39 -272.48,-55.39zm0 95.69c332.98,0 605.39,272.41 605.39,605.39l0 1715.29c0,332.98 -272.41,605.4 -605.39,605.4l-1941.43 0c-332.97,0 -605.39,-272.42 -605.39,-605.4l0 -1715.29c0,-332.98 272.42,-605.39 605.39,-605.39l1941.43 0z"/>
   <path class="fil4" d="M5732.81 5314.41c-302.27,35.43 -603.55,44.12 -603.55,44.12 0,0 -153.46,-765.08 -195.98,-1365.03 -31.33,-444.52 -1.86,-798.26 195.98,-682.86 91.01,53.1 195.83,153.08 305.14,279.88 409.93,475.88 880.96,1330.32 906.83,1507.65 16.62,114.01 -296.34,179.43 -608.42,216.24z"/>
   <path class="fil2" d="M5060.71 3338.34c-9.59,0 -14.62,3.6 -17.36,5.58 -32.45,23.15 -129.75,167.37 -19.65,1050.06 49.83,399.76 122.23,788.4 146.27,913.34 84.86,-3.41 286.27,-13.23 496.07,-35.54 487.09,-51.84 595.87,-124.4 620.1,-153.19 6.64,-7.98 6.11,-11.67 5.89,-13.23 -14.09,-96.64 -197.87,-466.88 -448.88,-863.94 -290.7,-459.83 -560.03,-783.42 -738.91,-887.77 -20.31,-11.85 -34.1,-15.31 -43.53,-15.31zm28.08 2071.15l-8.26 -41.14c-0.92,-4.68 -94.75,-474.79 -155.48,-961.58 -35.81,-286.97 -53.3,-523.91 -52.06,-704.24 1.73,-246.3 37.49,-385.96 112.54,-439.57 32.95,-23.54 88.99,-41.83 168.82,4.75 263.18,153.55 597.18,642.65 772.87,920.57 117.18,185.36 229.35,380.18 315.91,548.6 60.9,118.67 135.97,276.43 147.38,354.08 3.27,22.55 1.04,56.75 -28.18,91.59 -42.35,50.38 -130.16,89.78 -276.51,124.01 -107.31,25.09 -245.18,46.7 -409.83,64.19 -278.72,29.61 -542.64,37.45 -545.26,37.54l-41.94 1.2z"/>
   <path class="fil4" d="M3591.14 3282.4l-61.18 462.81 -34.81 263.11 -74.23 561.78c0,0 -135.65,92.25 -361.34,165.36 -84.29,27.36 -181.4,51.86 -288.6,67.91 -175.2,26.36 -377.74,29.69 -597.21,-15.18 -564.63,-115.65 -903.46,-535.04 -1050.18,-745.94 -283.49,-406.95 -327.14,-517 -248.31,-688.33 60.19,-131.31 163.26,-155.32 163.26,-155.32 0,0 -5.1,-104.93 77.96,-142.25 248.93,-111.77 569.6,186.76 569.6,186.76 0,0 11.95,-321.05 183.78,-246.93 118.39,51.09 145.23,400.63 145.23,400.63 0,0 158.93,204.15 411.33,231.27 131.91,14.16 314.46,-24.11 495.75,-79.69 2.11,-0.64 4.24,-1.26 6.34,-2 96.62,-29.86 192.62,-64.41 280.51,-98.62 39.43,-15.28 77.21,-30.56 112.67,-45.24 158.41,-65.65 269.43,-120.13 269.43,-120.13z"/>
   <path class="fil5" d="M2111.45 4722.6c-363.23,-95.03 -689.43,-338.74 -947.05,-708.72 -184.59,-265.09 -258.77,-394.99 -272.29,-489.74 30.48,56.4 69.52,118.76 115.1,190.91 34.87,55.17 99.51,188.84 347.25,401.11 135.56,116.16 487.81,344.91 948.49,365.04 -19.86,57.13 -42.66,106.51 -68.25,147.79 -37.97,6.19 -72.86,25.51 -98.39,55.1 -10.15,11.75 -18.45,24.74 -24.86,38.51zm650.83 -95.77l-447.58 0c13.62,-25.62 26.3,-53.42 38.08,-83.33 7.63,-19.38 14.9,-39.7 21.79,-60.88 125.58,-0.58 258.56,-17.09 396.68,-55.67 19,-5.31 36.19,-11.67 51.84,-18.95 -2.23,6.38 -4.43,12.77 -6.59,19.17 -7.03,20.86 -13.73,41.86 -20.05,62.94 -6.17,21.1 -12.38,42.23 -17.27,63.7 -5.14,21.41 -9.98,42.87 -14.93,64.33 -0.66,2.89 -1.32,5.79 -1.97,8.69z"/>
   <path class="fil2" d="M1050.06 3246.94c-6.42,1.75 -82.36,24.49 -129.68,127.62 -63.72,138.89 -48.07,219.84 244.02,639.32 274.6,394.34 627.08,645.24 1019.34,725.56 357.41,73.19 667.86,11.62 865.36,-52.89 167.44,-54.71 282.91,-119.98 325.59,-146.06l155.19 -1174.48c-81.1,36.99 -213.66,95.14 -362.5,150.9 -331.25,124.13 -582.32,178.15 -746.19,160.6 -270.31,-28.95 -438.28,-241.11 -445.28,-250.13 -6.02,-7.71 -9.6,-17.01 -10.37,-26.73 -0.05,-0.82 -6.8,-85.72 -27.34,-174.87 -34.66,-150.34 -76.08,-178.75 -87.95,-183.89 -29.72,-12.82 -42.54,-4.76 -47.38,-1.7 -41.78,26.3 -64.44,135.58 -67.17,204.78 -0.77,19.44 -12.77,36.66 -30.76,44.07 -17.96,7.38 -38.6,3.66 -52.83,-9.57 -2.95,-2.73 -299.51,-274.63 -515.25,-177.71 -49.71,22.34 -48.79,89.71 -48.65,94.57 1.45,24.55 -14.11,45.52 -38.15,50.61zm1464.41 1625.43c-117.89,0 -235.29,-11.83 -350.69,-35.45 -253.79,-51.98 -490.58,-169.03 -703.74,-347.85 -137.2,-115.12 -264.13,-255.88 -377.27,-418.36 -138.07,-198.29 -225.83,-334.49 -265.85,-443.91 -38.35,-104.82 -34.56,-189.93 13.05,-293.71 46.9,-102.2 117.78,-149.2 160.64,-169.35 7,-52.55 34.24,-120.7 105.49,-152.69 202.43,-90.96 436,49.78 551.61,136.37 1.15,-5.88 2.39,-11.89 3.75,-17.99 19.17,-85.96 52.25,-144.3 98.32,-173.37 28.3,-17.85 75.52,-33.29 139.9,-5.49 65.31,28.22 112.97,111.31 145.71,254.02 16.77,73.11 24.83,141.72 27.86,172.13 35.17,39.78 172.54,180.88 368.55,201.87 357.74,38.34 1129.65,-337.07 1137.42,-340.86 16.45,-8.07 36,-6.43 50.9,4.29 14.87,10.69 22.67,28.71 20.26,46.89l-170.11 1287.64c-1.86,14.05 -9.62,26.64 -21.33,34.62 -5.68,3.85 -142.1,95.82 -368.94,169.91 -132.88,43.42 -269.57,71.72 -406.27,84.1 -53.09,4.79 -106.25,7.19 -159.26,7.19z"/>
   <path class="fil2" d="M1727 3243.06c1.18,13.97 -0.93,26.68 -3.71,37.72 -1.4,5.69 -3.12,10.61 -4.88,15.67 -1.77,4.73 -3.71,9.54 -5.62,13.86 -7.88,17.66 -16.33,32.26 -24.39,46.48 -8.09,14.1 -15.89,27.53 -23.13,40.99l-5.3 10.08c-1.68,3.4 -3.45,6.76 -5.06,10.17l-4.7 10.28 -4.49 10.39 -4.07 10.58 -3.77 10.72c-1.28,3.57 -2.25,7.25 -3.4,10.88 -1.17,3.63 -2.1,7.35 -3.08,11.08 -3.77,14.84 -7.03,30.18 -8.92,45.92 -2.05,15.76 -3.39,31.91 -3.74,48.33 -0.41,8.26 -0.25,16.55 -0.33,24.94 -0.14,4.21 0.22,8.37 0.25,12.61 0.08,4.23 0.22,8.47 0.18,12.76l0 0.33c0,3.31 -2.67,5.99 -5.98,5.96 -2.33,0 -4.32,-1.31 -5.33,-3.22 -7.95,-15.48 -15.18,-31.55 -20.76,-48.36 -5.87,-16.74 -10.08,-34.15 -13.17,-52.01 -6.09,-35.71 -5.93,-73.49 0.73,-110.4l2.77 -13.77c1.07,-4.55 2.24,-9.06 3.36,-13.62 1.2,-4.51 2.54,-8.95 3.8,-13.42 1.31,-4.49 2.88,-8.81 4.32,-13.24 5.99,-17.47 13.4,-34.09 21.05,-49.68 7.58,-15.55 15.7,-30.23 22.23,-42.97 6.92,-12.93 10.83,-23.37 13.12,-29.06l4.85 -11.85c8.36,-20.52 31.79,-30.37 52.32,-22 14.47,5.88 23.62,19.3 24.85,33.85z"/>
   <path class="fil2" d="M2119.11 4822.37c-12.54,0 -24.63,-6.97 -30.62,-18.97 -8.39,-16.9 -1.53,-37.41 15.39,-45.83 137.88,-68.59 232.06,-282.66 272.36,-619.05 31.25,-260.74 18.29,-503.2 18.15,-505.62 -1.06,-18.84 13.37,-34.97 32.21,-36.04 18.75,-1.04 34.97,13.37 36.03,32.23 0.14,2.46 13.43,250.08 -18.39,516.64 -18.86,157.73 -49.62,291.55 -91.46,397.77 -54.13,137.47 -127.64,230.09 -218.47,275.26 -4.89,2.43 -10.09,3.61 -15.2,3.61z"/>
   <path class="fil4" d="M5839.98 6182.56l-3283.24 0c0,0 20.04,-566.62 214.24,-1379.19 77.85,-325.92 183.77,-691.35 327.64,-1075.69 34.58,-92.27 71.38,-185.63 110.42,-279.91 109.17,-262.97 236.5,-532.3 384.98,-801.6l1208.71 0c122.73,222.68 231.03,445.26 326.53,664.47 61.78,141.75 118.23,282.01 169.71,419.78 224.69,600.57 356.61,1154.88 433.84,1583.99 95.22,529.32 107.17,868.15 107.17,868.15z"/>
   <path class="fil2" d="M5389.28 4152.98c63.46,70.83 92.44,153.3 119.26,236.1 13.43,41.45 26.71,82.93 39.37,124.63 6.31,20.83 12.85,41.64 18.51,62.66 5.82,20.96 11.48,42.01 17.17,63.04l16.62 63.18c5.46,21.08 10.99,42.13 16.13,63.29l30.21 127.14c4.9,21.21 10.31,42.29 15.11,63.53l14.4 63.73 14.78 63.6c5.01,21.21 10.12,42.34 14.76,63.62l28.5 127.48c4.88,21.21 9.09,42.59 13.61,63.89l13.34 63.93 6.69 31.98 3.31 16 3.12 16.01 12.53 64.12c4.15,21.38 8.44,42.73 12.96,64.03 4.31,21.37 8.66,42.72 13.2,64.03 19.02,85.1 32.89,171.31 38.68,258.66 0.77,10.91 1.59,21.79 2.13,32.75l1.4 32.83c0.71,21.93 1.31,43.83 1.01,65.89 -0.13,22.02 -0.65,44.02 -2.04,66.17 -1.29,22.08 -3.16,44.2 -6.47,66.51 -0.64,4.3 -4.64,7.28 -8.93,6.62 -2.92,-0.43 -5.22,-2.43 -6.21,-5.01l-0.02 -0.07c-15.69,-41.7 -28.52,-83.58 -40.63,-125.47 -5.96,-20.94 -11.71,-41.94 -17.25,-62.9l-7.99 -31.52c-2.5,-10.53 -5.11,-21.03 -7.73,-31.56 -10.17,-42.08 -19.14,-84.26 -27.21,-126.64 -3.91,-21.21 -7.41,-42.48 -10.63,-63.81 -3.47,-21.29 -6.7,-42.62 -9.98,-63.95 -3.23,-21.35 -6.65,-42.64 -10.09,-63.97 -3.66,-21.27 -7.74,-42.46 -11.86,-63.64l-12.39 -63.55 -3.09 -15.9 -3.31 -15.84 -6.61 -31.71 -13.24 -63.38c-4.48,-21.12 -8.66,-42.29 -13.49,-63.34l-28.28 -126.42c-4.53,-21.11 -9.81,-42.05 -14.84,-63.05l-15.45 -62.91 -15.86 -62.8c-2.57,-10.49 -5.49,-20.88 -8.26,-31.29l-8.5 -31.29 -34.15 -124.94c-11.83,-41.53 -23.88,-82.97 -35.41,-124.58 -5.73,-20.81 -11.48,-41.6 -17.05,-62.45l-4.16 -15.63 -4.42 -15.59 -8.67 -31.2c-11.56,-41.58 -22.53,-83.36 -33.33,-125.18l-7.92 -31.42c-2.66,-10.48 -5.59,-20.85 -8.37,-31.3 -5.55,-20.89 -10.17,-42.05 -13.7,-63.56 -3.47,-21.55 -5.9,-43.42 -6.84,-65.78 -0.49,-11.19 -0.54,-22.5 -0.13,-33.99 0.43,-11.51 1.18,-23.11 3.2,-35.14l0.05 -0.46c0.77,-4.53 5.09,-7.6 9.62,-6.83 1.95,0.32 3.61,1.28 4.84,2.65z"/>
   <path class="fil2" d="M2549.09 6182.28c-5.09,-11.27 -8.54,-22.45 -11.79,-33.68 -3.28,-11.27 -5.71,-22.4 -7.84,-33.6 -4.41,-22.42 -6.76,-44.71 -8.07,-66.93 -0.6,-11.14 -1.01,-22.26 -0.98,-33.31 0.05,-11.07 0.46,-22.08 1.01,-33.13l1.85 -33.06c0.58,-11.01 1.27,-22.03 2.17,-33.02 3.41,-43.96 6.72,-87.98 11.89,-131.72 2.32,-21.93 4.9,-43.8 7.49,-65.7 1.23,-10.94 2.92,-21.82 4.4,-32.75l4.62 -32.7 9.68 -65.37c3.36,-21.76 7.33,-43.42 10.99,-65.12 7.57,-43.39 14.65,-86.86 23.27,-130.04 8.36,-43.19 16.02,-86.53 24.6,-129.7 8.7,-43.1 17.17,-86.28 25.51,-129.48 2.14,-10.79 4.08,-21.61 6.37,-32.36l6.89 -32.27 13.76 -64.55 13.75 -64.52c1.17,-5.38 2.26,-10.77 3.5,-16.13l3.77 -16.04 7.52 -32.13 30.15 -128.47c2.43,-10.72 5.17,-21.38 7.87,-32.04 2.63,-10.66 5.31,-21.33 7.82,-32.05 5.06,-21.4 10.12,-42.81 14.96,-64.27 4.95,-21.46 9.79,-42.92 14.93,-64.33 4.89,-21.47 11.1,-42.6 17.27,-63.7 6.32,-21.08 13.02,-42.08 20.05,-62.94 7.05,-20.86 14.54,-41.61 22.12,-62.31l11.69 -30.92c1.97,-5.16 4.13,-10.25 6.3,-15.33 2.16,-5.08 4.23,-10.2 6.47,-15.26 8.8,-20.32 17.78,-40.55 27.26,-60.61 9.4,-20.1 19.22,-40.03 29.53,-59.77 10.33,-19.77 20.99,-39.37 32.86,-58.53 2.27,-3.7 7.11,-4.84 10.8,-2.57 2.52,1.55 3.85,4.32 3.71,7.11l0 0.11c-4.92,90.21 -21.84,176.06 -38.51,261.91 -4.27,21.41 -8.67,42.79 -13.45,64.03 -4.85,21.25 -10.04,42.38 -15.59,63.4 -11.54,41.94 -23.1,83.88 -35.19,125.68 -6.06,20.91 -11.92,41.86 -17.76,62.83 -2.96,10.5 -5.72,21 -8.54,31.52 -2.76,10.53 -5.6,21.03 -7.98,31.64l-29.82 127.13 -7.45 31.76 -3.74 15.89c-1.21,5.3 -2.27,10.63 -3.44,15.94l-13.59 63.86 -13.62 63.84 -6.81 31.9c-2.29,10.65 -4.18,21.35 -6.31,32.05 -34.94,170.57 -58.42,343.19 -81.25,515.44l-8.86 64.57c-2.76,21.55 -5.52,43.09 -8.53,64.61l-17.61 129.12c-3.17,21.49 -5.77,43.04 -8.64,64.55 -1.5,10.77 -3.11,21.52 -5.11,32.23 -1.97,10.72 -3.89,21.42 -6.29,32.1 -4.78,21.39 -10.72,42.7 -17.77,63.98 -3.5,10.64 -7.68,21.3 -11.97,31.88 -4.4,10.63 -9.19,21.29 -15.09,31.87l-0.07 0.11c-2.29,4.1 -7.46,5.58 -11.55,3.29 -1.68,-0.94 -2.9,-2.33 -3.61,-3.94z"/>
   <path class="fil4" d="M3502.4 5467.67c-187.26,75.78 -477.05,59.93 -674.64,36.03 -118.49,-14.35 -201.66,-123.68 -184.21,-241.76 15.93,-107.75 110.77,-186.11 219.56,-181.02 184.82,8.67 461.99,12.72 637.53,-26.22l1.76 412.97z"/>
   <path class="fil3" d="M2853.02 5130.43c-80.22,0 -148.4,58.43 -160.26,138.78 -6.49,43.8 4.72,87.33 31.57,122.51 26.77,35.07 65.62,57.31 109.42,62.61 282.5,34.17 513.33,22.55 649.98,-32.78 40.57,-16.43 52.21,-82.19 55.36,-109.69 10.9,-96.21 -18.38,-185.15 -36.69,-206.66 -178.06,37.42 -446.33,34.56 -641.61,25.42 -2.6,-0.13 -5.2,-0.19 -7.77,-0.19zm277.06 442.75c-108.32,0 -216.04,-8.95 -308.28,-20.1 -70.64,-8.56 -133.37,-44.42 -176.53,-101.02 -43.28,-56.7 -61.35,-126.8 -50.91,-197.39 9.48,-64.33 42.35,-122.57 92.49,-163.93 50.22,-41.39 113.62,-62.55 178.59,-59.5 272.22,12.77 493.97,3.86 624.43,-25.09 26.2,-5.8 91.27,-6.02 129.68,117.47 39.02,125.47 34.69,336.23 -98.51,390.14 -109.82,44.45 -250.9,59.42 -390.96,59.42z"/>
   <path class="fil4" d="M4934.67 5467.67c187.26,75.78 477.06,59.93 674.61,36.03 118.52,-14.35 201.69,-123.68 184.25,-241.76 -15.94,-107.75 -110.78,-186.11 -219.59,-181.02 -184.79,8.67 -461.99,12.72 -637.51,-26.22l-1.76 412.97z"/>
   <path class="fil3" d="M4934.67 5105.2c-18.34,21.51 -47.62,110.45 -36.69,206.66 3.12,27.5 14.77,93.26 55.37,109.69 136.61,55.33 367.45,66.95 649.98,32.78 43.77,-5.3 82.62,-27.54 109.38,-62.61 26.85,-35.18 38.09,-78.71 31.61,-122.51 -12.28,-82.92 -84.48,-142.47 -168.06,-138.59 -195.26,9.14 -463.52,12 -641.59,-25.42zm372.29 467.98c-140.06,0 -281.11,-14.97 -390.96,-59.42 -133.17,-53.91 -137.49,-264.67 -98.48,-390.14 38.42,-123.49 103.48,-123.29 129.68,-117.47 130.46,28.95 352.21,37.86 624.41,25.09 65.02,-3.03 128.4,18.11 178.59,59.5 50.16,41.36 83,99.6 92.52,163.93 10.44,70.59 -7.63,140.69 -50.91,197.39 -43.2,56.6 -105.88,92.46 -176.53,101.02 -92.23,11.15 -199.99,20.1 -308.32,20.1z"/>
   <path class="fil4" d="M5007.05 4918.22l0 661.79c0,122.78 -100.51,223.28 -223.29,223.28l-1218.78 0c-122.62,0 -223.13,-100.5 -223.13,-223.28l0 -661.79c0,-122.78 100.51,-223.11 223.13,-223.11l1218.78 0c72.28,0 136.81,34.82 177.74,88.46 28.55,37.45 45.55,84.15 45.55,134.65z"/>
   <path class="fil3" d="M3565.03 4744.8c-95.63,0 -173.44,77.78 -173.44,173.42l0 661.87c0,95.64 77.81,173.44 173.44,173.44l1218.81 0c95.64,0 173.42,-77.8 173.42,-173.44l0 -661.87c0,-95.64 -77.78,-173.42 -173.42,-173.42l-1218.81 0zm1218.81 1108.2l-1218.81 0c-150.48,0 -272.9,-122.43 -272.9,-272.91l0 -661.87c0,-150.48 122.42,-272.91 272.9,-272.91l1218.81 0c150.48,0 272.91,122.43 272.91,272.91l0 661.87c0,150.48 -122.43,272.91 -272.91,272.91z"/>
   <path class="fil6" d="M4798.66 5249.17c0,106.29 -86.15,192.45 -192.44,192.45 -106.3,0 -192.47,-86.16 -192.47,-192.45 0,-106.3 86.17,-192.48 192.47,-192.48 106.29,0 192.44,86.18 192.44,192.48z"/>
   <path class="fil3" d="M4606.22 5094.01c-85.57,0 -155.18,69.59 -155.18,155.16 0,85.55 69.61,155.15 155.18,155.15 85.54,0 155.15,-69.6 155.15,-155.15 0,-85.57 -69.61,-155.16 -155.15,-155.16zm0 384.92c-126.7,0 -229.77,-103.07 -229.77,-229.76 0,-126.69 103.07,-229.76 229.77,-229.76 126.69,0 229.75,103.07 229.75,229.76 0,126.69 -103.06,229.76 -229.75,229.76z"/>
   <path class="fil3" d="M4060.79 5840.56c-20.59,0 -37.3,-16.68 -37.3,-37.3l0 -453.29 -243.76 -183.5 0 -471.43c0,-20.58 16.71,-37.29 37.32,-37.29 20.59,0 37.3,16.71 37.3,37.29l0 434.21 243.75 183.48 0 490.53c0,20.62 -16.7,37.3 -37.31,37.3z"/>
   <path class="fil4" d="M4198.33 6159.59c215.6,0 422.93,-80 584.85,-222.36 224.3,-197.17 601.89,-432.32 1018.66,-281.49 167.24,60.51 281.19,171.45 358.94,294.26 200.2,-463.96 620.27,-491.79 802.09,-228.8 0,0 -305.56,1457.97 -405.16,1490.43 -142.75,46.47 -485.56,-2.42 -485.56,-2.42 0,0 -1192.73,-161.46 -1873.82,-161.46 -681.11,0 -1873.85,161.46 -1873.85,161.46 0,0 -342.84,48.89 -485.5,2.42 -99.59,-32.46 -405.2,-1490.43 -405.2,-1490.43 181.79,-262.99 601.87,-235.16 802.1,228.8 77.73,-122.81 191.7,-233.75 358.92,-294.26 416.76,-150.83 794.38,84.32 1018.68,281.49 161.9,142.36 369.23,222.36 584.85,222.36z"/>
   <path class="fil5" d="M6376.41 7181.87c-92.28,0 -194,-9.15 -259.72,-17 2.21,-13.23 3.36,-26.79 3.36,-40.63 0,-76.47 -53.12,-140.77 -124.42,-157.93l52.49 -354.06c15.64,4.14 23.97,6.37 23.97,6.37 0,0 111.28,15.85 233.43,20.94 -5.88,51.27 -9.84,101.3 -11.33,149.2 -0.3,0 -0.6,0 -0.82,0 -20.95,0 -38.84,16.02 -40.78,37.32 -2.01,22.55 14.61,42.49 37.2,44.54l4.25 0.37c3.36,104.39 21.17,193.76 58.89,255.33l0 0c0.08,0.14 0.23,0.3 0.3,0.44 0,0.03 0,0.06 0,0.08 0.08,0.11 0.15,0.22 0.22,0.36 0.08,0.06 0.08,0.11 0.16,0.16 0.07,0.11 0.07,0.2 0.14,0.31 0.08,0.08 0.08,0.16 0.15,0.21 0.08,0.09 0.08,0.14 0.15,0.22 0,0.11 0.07,0.22 0.15,0.33 0.08,0.02 0.08,0.08 0.15,0.13 0.07,0.15 0.15,0.28 0.23,0.41 0,0 0,0 0,0.03 13.34,21.11 28.99,38.8 47.41,52.63 -8.43,0.17 -16.93,0.24 -25.58,0.24zm-4356.16 0c-8.63,0 -17.17,-0.07 -25.58,-0.24 20.03,-15.06 36.9,-34.75 50.92,-58.42 0.03,-0.03 0.03,-0.05 0.06,-0.08 0.05,-0.11 0.13,-0.25 0.22,-0.39 0.03,-0.02 0.05,-0.11 0.08,-0.13 0.05,-0.09 0.13,-0.22 0.16,-0.3 0.06,-0.09 0.11,-0.17 0.17,-0.25 0.05,-0.08 0.05,-0.11 0.11,-0.19 0.08,-0.11 0.13,-0.22 0.19,-0.36 0.03,-0.03 0.03,-0.03 0.06,-0.08 0.08,-0.13 0.16,-0.27 0.24,-0.43l0.03 -0.03c35.54,-61.33 52.41,-148.57 55.69,-249.98l4.29 -0.37c22.55,-2.05 39.18,-21.99 37.15,-44.54 -1.91,-21.32 -19.78,-37.32 -40.81,-37.32 -0.25,0 -0.49,0 -0.74,0 -1.53,-47.9 -5.44,-97.93 -11.32,-149.2 122.1,-5.09 233.29,-20.94 233.29,-20.94 0,0 13.75,-3.71 39.15,-10.36l53.07 358.05c-71.28,17.16 -124.4,81.46 -124.4,157.93 0,13.18 1.05,26.11 3.03,38.72 -64.41,8.19 -175.27,18.91 -275.06,18.91z"/>
   <path class="fil2" d="M1865.23 7170.37l0 0zm157.62 110.89c-74.8,0 -147.88,-5.6 -199.28,-22.34 -35.05,-11.43 -64.53,-50.27 -119.83,-222.57 -32.38,-100.85 -71.22,-241.28 -115.43,-417.43 -79.62,-317.08 -157.22,-672.72 -186.89,-810.9 -15.53,-72.34 8.18,-147.14 61.88,-195.23 103.14,-92.32 241.34,-127.87 379.21,-97.52 86.89,19.1 171.42,64.47 244.48,131.18 60.48,55.25 113.07,124.25 156.92,205.84 89.03,-113.55 201.03,-195.23 334,-243.33 150.61,-54.51 308.19,-65.31 468.41,-32.17 129.34,26.78 260.87,82.34 390.9,165.13 23.16,14.73 29.99,45.49 15.23,68.65 -14.73,23.18 -45.49,29.99 -68.65,15.25 -267.64,-170.38 -527.39,-211.85 -772.08,-123.3 -137.98,49.9 -250.29,142.12 -333.82,274.08 -9.87,15.56 -27.59,24.42 -45.93,22.97 -18.37,-1.45 -34.44,-12.94 -41.78,-29.88 -83.65,-193.85 -218.16,-324.09 -369.06,-357.28 -106.24,-23.38 -212.48,3.77 -291.46,74.5 -27.17,24.3 -39.04,62.72 -30.99,100.25 28,130.39 101.39,466.91 177.8,774.35 42.02,168.99 79.25,306.45 110.69,408.59 44.03,142.99 67.02,184.95 75.19,196.66 112.4,31.47 365.1,6.05 455.13,-6.79l0.32 -0.02c11.98,-1.61 1203.89,-161.94 1880.52,-161.94 676.6,0 1868.55,160.33 1880.49,161.94l0.35 0.05c90,12.81 342.72,38.23 455.13,6.76 7.98,-11.48 30.34,-52.22 72.91,-189.41 30.71,-98.92 67.02,-232.2 108.02,-396.19 73.13,-292.43 143.2,-610.55 178.46,-774.15 11.56,-53.61 -8.5,-108.56 -51.13,-140 -81.41,-60.04 -182.27,-77.95 -284.03,-50.42 -145.81,39.4 -270.83,164.8 -352.08,353.1 -7.3,16.94 -23.38,28.43 -41.79,29.88 -18.36,1.45 -36.05,-7.41 -45.89,-22.97 -83.53,-131.96 -195.87,-224.18 -333.85,-274.08 -246.8,-89.32 -508.79,-46.4 -778.72,127.57 -23.1,14.87 -53.86,8.23 -68.77,-14.88 -14.86,-23.07 -8.21,-53.86 14.89,-68.73 130.81,-84.31 263.19,-141.07 393.44,-168.71 161.8,-34.34 320.94,-23.84 473.01,31.22 132.95,48.07 244.96,129.75 333.98,243.32 93.43,-173.63 226.12,-290.2 379.84,-331.77 129.64,-35.08 264.19,-10.88 369,66.39 74.03,54.62 109.14,149.24 89.31,241.02 -37.35,173.34 -111.37,509.15 -187.48,810.63 -43.24,170.96 -81.11,307.14 -112.79,404.8 -53.98,166.58 -82.89,204.25 -117.56,215.54 -151.25,49.27 -490.42,2.02 -507.73,-0.41 -18.7,-2.54 -1199.07,-161.04 -1867.01,-161.04 -668.04,0 -1848.34,158.5 -1867.03,161.04 -11.41,1.61 -163.14,22.75 -308.45,22.75z"/>
   <path class="fil7" d="M6469.08 7211.63l88.63 0c104,0 198.3,-61 240.63,-155.98 132.55,-296.93 374.38,-949.37 147.91,-1347.55 -6.64,-11.63 -13.65,-22.81 -21.1,-33.53 0,0 -217.45,-197.74 -373.62,82.03 -145.89,261.28 -452.12,1378.71 -82.45,1455.03z"/>
   <path class="fil4" d="M6471.54 5942.81c28.47,-79.2 56.28,-143.89 79.99,-186.21 -23.56,42.27 -51.44,106.98 -79.92,186.04 0,0.06 0,0.11 -0.07,0.17z"/>
   <path class="fil8" d="M7033.46 5998.22c-16.69,-42.57 -38.16,-83.22 -65,-121.55 -8.05,-11.61 -16.77,-22.77 -25.94,-33.52 0,0 -91.69,-67.83 -206.27,-67.83 -81.03,0 -173.54,33.96 -253.09,149.85 -3.72,5.42 -7.67,11.27 -11.55,17.47 28.48,-79.06 56.36,-143.77 79.92,-186.04l0 0c64.7,-115.92 139.92,-149.85 205.81,-149.85 93.19,0 167.81,67.82 167.81,67.82 7.45,10.72 14.46,21.9 21.1,33.53l0 0c18.93,33.38 34.66,68.54 47.41,105.12 4.39,12.6 8.42,25.34 12.15,38.28 13.42,47.1 22.44,96.26 27.65,146.72z"/>
   <path class="fil2" d="M7032.27 6028.08c-2.24,0 -4.47,-0.19 -6.78,-0.58l-543.37 -90.71c-22.36,-3.71 -37.42,-24.85 -33.69,-47.19 3.72,-22.36 24.82,-37.42 47.18,-33.71l543.44 90.72c22.29,3.75 37.36,24.88 33.63,47.21 -3.28,20.04 -20.72,34.26 -40.41,34.26z"/>
   <path class="fil2" d="M7028.84 6321.69c-1.78,0 -3.65,-0.15 -5.51,-0.39l-635.66 -85.46c-22.44,-3.01 -38.24,-23.65 -35.19,-46.1 2.99,-22.45 23.63,-38.22 46.08,-35.18l635.73 85.46c22.43,3 38.17,23.65 35.18,46.09 -2.83,20.61 -20.42,35.58 -40.63,35.58z"/>
   <path class="fil2" d="M6972.79 6609.24c-1.65,0 -3.36,-0.1 -5.08,-0.3l-645.27 -78.98c-22.51,-2.77 -38.46,-23.21 -35.71,-45.69 2.76,-22.5 23.19,-38.52 45.7,-35.73l645.28 78.98c22.44,2.76 38.46,23.22 35.7,45.69 -2.53,20.78 -20.2,36.03 -40.62,36.03z"/>
   <path class="fil2" d="M6870.43 6922.83c-1.26,0 -2.53,-0.05 -3.72,-0.17l-576.92 -52.04c-22.59,-2.05 -39.21,-21.99 -37.2,-44.54 2.02,-22.56 22,-39.21 44.51,-37.16l576.99 52.05c22.51,2.05 39.13,21.99 37.12,44.54 -1.94,21.3 -19.83,37.32 -40.78,37.32z"/>
   <path class="fil9" d="M6354.58 7129c0,-0.03 0,-0.03 0,-0.03l0 0.03zm-0.23 -0.44c-0.07,-0.05 -0.07,-0.11 -0.15,-0.13 0.08,0.05 0.08,0.05 0.15,0.13zm-0.3 -0.46c-0.07,-0.08 -0.07,-0.13 -0.15,-0.22 0.08,0.09 0.08,0.17 0.15,0.22zm-0.3 -0.43c-0.07,-0.11 -0.07,-0.2 -0.14,-0.31 0.07,0.11 0.07,0.2 0.14,0.31zm-0.3 -0.47c-0.07,-0.14 -0.14,-0.25 -0.22,-0.36 0.08,0.11 0.15,0.25 0.22,0.36zm-0.22 -0.44c-0.07,-0.14 -0.22,-0.3 -0.3,-0.44 0.08,0.17 0.15,0.28 0.3,0.44zm-0.3 -0.44c-37.72,-61.57 -55.53,-150.94 -58.89,-255.33l0 0c3.43,104.42 21.17,193.76 58.89,255.33z"/>
   <path class="fil10" d="M6557.71 7211.63l-88.63 0 0 0c-49.72,-10.29 -87.22,-39.35 -114.5,-82.63l0 -0.03c-0.08,-0.13 -0.16,-0.3 -0.23,-0.41 -0.07,-0.08 -0.07,-0.08 -0.15,-0.13 -0.08,-0.11 -0.15,-0.22 -0.15,-0.33 -0.07,-0.05 -0.07,-0.13 -0.15,-0.22 -0.07,-0.08 -0.07,-0.13 -0.15,-0.21 -0.07,-0.11 -0.07,-0.2 -0.14,-0.31 -0.08,-0.05 -0.08,-0.1 -0.16,-0.16 -0.07,-0.11 -0.14,-0.25 -0.22,-0.36 0,-0.02 0,-0.05 0,-0.08 -0.15,-0.16 -0.22,-0.27 -0.3,-0.44l0 0c-37.72,-61.57 -55.46,-150.91 -58.89,-255.33l167.65 15.12c19.69,10.37 41.68,17.83 66.13,22.1l105.56 0c14.91,0 29.66,-0.91 44.13,-2.6l177.34 15.99c-19.83,49.9 -39.14,95.01 -56.51,134.05l0 0c-42.33,94.98 -136.63,155.98 -240.63,155.98zm327.26 -368.16c-3.43,-1.28 -7.08,-2.13 -10.88,-2.5l-27.88 -2.51c27.06,-20.94 49.94,-46.03 67.09,-74.5 -9.39,27.32 -18.86,53.89 -28.33,79.51zm-512.8 -47.77l-75.07 -6.78c-0.97,-0.08 -1.94,-0.13 -2.91,-0.16 2.46,-78.03 11.33,-161.86 24.6,-247.12 1.19,100.69 17.07,188.94 53.38,254.06z"/>
   <path class="fil2" d="M6854.85 6921.6l-177.34 -15.99c63.59,-7.58 122.33,-31.28 168.7,-67.15l27.88 2.51c3.8,0.37 7.45,1.22 10.88,2.5 -10.07,27.11 -20.13,53.22 -30.12,78.13zm-393.16 -35.49l-167.65 -15.12 0 0c-0.82,-26.51 -0.75,-53.99 0.15,-82.23 0.97,0.03 1.94,0.08 2.91,0.16l75.07 6.78c21.99,39.4 51.36,70.35 89.52,90.41z"/>
   <path class="fil2" d="M6473.55 7170.61l84.16 0c87.74,0 167.51,-51.66 203.14,-131.64 67.69,-151.62 158.34,-383.44 205.82,-626.99 56.36,-289.12 37.5,-519.12 -56.06,-683.6 -5.14,-8.97 -10.58,-17.72 -16.24,-26.07 -15.37,-12.56 -85.14,-65.24 -160.8,-52.61 -55.17,9.21 -104.37,51.89 -146.26,126.88 -55.17,98.81 -144.4,351.34 -201.28,624.72 -64.78,311.97 -68.88,552.89 -11.48,678.38 23.33,50.94 55.69,80.73 99,90.93zm84.16 82.03l-88.63 0c-2.76,0 -5.59,-0.28 -8.28,-0.85 -71.56,-14.77 -125.75,-61.22 -160.87,-138.02 -82.82,-181.04 -42.49,-496.46 5.82,-729.18 59.11,-284.39 150.35,-541.24 209.99,-648.01 54.79,-98.15 123.82,-154.63 205.08,-167.91 124.71,-20.35 227.59,71.65 231.91,75.59 2.24,2.05 4.25,4.34 6.04,6.86 8.13,11.7 15.96,24.06 23.11,36.74 103.55,181.98 125.46,430.91 65.3,739.82 -48.9,251.14 -142.01,489.22 -211.41,644.71 -48.83,109.48 -157.96,180.25 -278.06,180.25z"/>
   <path class="fil7" d="M1927.57 7211.63l-88.59 0c-104.02,0 -198.31,-61 -240.64,-155.98 -132.62,-296.93 -374.38,-949.37 -147.93,-1347.55 6.6,-11.63 13.64,-22.81 21.12,-33.53 0,0 217.42,-197.74 373.59,82.03 145.91,261.28 452.14,1378.71 82.45,1455.03z"/>
   <path class="fil4" d="M1925.11 5942.81c-0.03,-0.06 -0.09,-0.11 -0.11,-0.19 -28.46,-79.07 -56.27,-143.75 -79.88,-186.02 23.69,42.32 51.5,107.01 79.99,186.21z"/>
   <path class="fil11" d="M1390.3 5853.51c3.77,-13.31 7.9,-26.49 12.4,-39.47 0,0 0.01,0 0.01,0 -4.5,12.98 -8.64,26.16 -12.41,39.47z"/>
   <path class="fil12" d="M1402.71 5814.04c0,0 -0.01,0 -0.01,0 12.79,-36.91 28.58,-72.34 47.71,-105.94 -19.12,33.62 -34.9,69.06 -47.7,105.94z"/>
   <path class="fil8" d="M1363.16 5998.22c5.16,-49.76 13.98,-98.22 27.14,-144.71 3.77,-13.31 7.91,-26.49 12.41,-39.47 12.8,-36.88 28.58,-72.32 47.7,-105.94l0 0c6.6,-11.63 13.64,-22.81 21.12,-33.53 0,0 74.59,-67.82 167.77,-67.82 65.91,0 141.12,33.93 205.82,149.85l0 0c23.61,42.27 51.42,106.95 79.88,186.02 -3.88,-6.18 -7.74,-12.03 -11.51,-17.45 -79.56,-115.89 -172.05,-149.85 -253.08,-149.85 -114.61,0 -206.31,67.83 -206.31,67.83 -9.16,10.75 -17.87,21.91 -25.91,33.52 -26.82,38.33 -48.27,78.98 -65.03,121.55z"/>
   <path class="fil2" d="M1364.35 6028.08c-19.69,0 -37.06,-14.22 -40.41,-34.26 -3.73,-22.33 11.36,-43.46 33.7,-47.21l543.41 -90.72c22.34,-3.71 43.47,11.35 47.19,33.71 3.75,22.34 -11.35,43.48 -33.68,47.19l-543.42 90.71c-2.28,0.39 -4.55,0.58 -6.79,0.58z"/>
   <path class="fil2" d="M1367.8 6321.69c-20.21,0 -37.82,-14.97 -40.58,-35.58 -3.02,-22.44 12.72,-43.09 35.17,-46.09l635.68 -85.46c22.48,-3.04 43.09,12.73 46.1,35.18 3.04,22.45 -12.71,43.09 -35.16,46.1l-635.69 85.46c-1.86,0.24 -3.7,0.39 -5.52,0.39z"/>
   <path class="fil2" d="M1423.89 6609.24c-20.43,0 -38.1,-15.25 -40.65,-36.03 -2.76,-22.47 13.23,-42.93 35.72,-45.69l645.28 -78.98c22.47,-2.73 42.95,13.23 45.69,35.73 2.76,22.48 -13.23,42.92 -35.71,45.69l-645.29 78.98c-1.7,0.2 -3.39,0.3 -5.04,0.3z"/>
   <path class="fil2" d="M1526.22 6922.83c-20.97,0 -38.88,-16.02 -40.79,-37.32 -2.03,-22.55 14.61,-42.49 37.15,-44.54l576.93 -52.05c22.59,-2.02 42.49,14.6 44.53,37.16 2.03,22.55 -14.6,42.49 -37.15,44.54l-576.92 52.04c-1.27,0.12 -2.52,0.17 -3.75,0.17z"/>
   <path class="fil9" d="M2045.59 7123.21c0.03,-0.03 0.03,-0.05 0.06,-0.08 -0.03,0.03 -0.03,0.05 -0.06,0.08zm0.28 -0.47c0.03,-0.05 0.05,-0.08 0.08,-0.13 -0.03,0.02 -0.05,0.11 -0.08,0.13zm0.24 -0.43c0.06,-0.09 0.11,-0.17 0.17,-0.25 -0.06,0.08 -0.11,0.16 -0.17,0.25zm0.28 -0.44c0.05,-0.11 0.13,-0.25 0.19,-0.36 -0.06,0.14 -0.11,0.25 -0.19,0.36zm0.25 -0.44c0.08,-0.13 0.16,-0.27 0.24,-0.43 -0.08,0.16 -0.16,0.3 -0.24,0.43zm0.27 -0.46c35.54,-61.33 52.38,-148.54 55.69,-249.98l0 0c-3.28,101.41 -20.15,188.65 -55.69,249.98z"/>
   <path class="fil10" d="M1927.57 7211.63l-88.59 0c-104.02,0 -198.31,-61 -240.64,-155.98l0 0c-17.41,-39.04 -36.69,-84.15 -56.56,-134.05l177.37 -15.99c14.47,1.69 29.21,2.6 44.08,2.6l105.58 0c24.48,-4.27 46.48,-11.73 66.17,-22.1l167.62 -15.12c-3.31,101.44 -20.15,188.65 -55.69,249.98 0,0.03 0,0.03 -0.03,0.03 -0.08,0.16 -0.16,0.3 -0.24,0.43 0,0.03 -0.03,0.08 -0.06,0.08 -0.06,0.11 -0.14,0.25 -0.19,0.36 -0.03,0.05 -0.08,0.13 -0.11,0.19 -0.06,0.08 -0.11,0.16 -0.17,0.25 -0.05,0.1 -0.11,0.18 -0.16,0.3 -0.03,0.05 -0.05,0.08 -0.08,0.13 -0.09,0.14 -0.13,0.24 -0.22,0.39 -0.03,0.03 -0.03,0.05 -0.06,0.08 -27.55,46.47 -66.13,77.7 -118.02,88.42l0 0zm-415.86 -368.16c-9.49,-25.62 -19.01,-52.19 -28.33,-79.51 17.14,28.47 40,53.56 67.06,74.5l-27.86 2.51c-3.8,0.37 -7.46,1.22 -10.87,2.5zm512.78 -47.77c36.25,-65.12 52.19,-153.37 53.34,-254.06 13.31,85.26 22.18,169.09 24.66,247.12 -0.98,0.03 -2,0.08 -2.98,0.16l-75.02 6.78z"/>
   <path class="fil2" d="M1541.78 6921.6c-9.93,-24.91 -20.02,-51.02 -30.07,-78.13 3.41,-1.28 7.07,-2.13 10.87,-2.5l27.86 -2.51c46.34,35.87 105.07,59.57 168.71,67.15l-177.37 15.99zm393.2 -35.49c38.14,-20.06 67.55,-50.98 89.51,-90.41l75.02 -6.78c0.98,-0.08 2,-0.13 2.98,-0.16 0.9,28.24 0.96,55.72 0.11,82.23l0 0 -167.62 15.12z"/>
   <path class="fil2" d="M1502.24 5702.31c-5.65,8.35 -11.07,17.08 -16.15,26.02 -93.58,164.53 -112.45,394.53 -56.11,683.65 47.45,243.55 138.1,475.37 205.79,626.96 35.68,80.01 115.42,131.67 203.21,131.67l84.14 0c43.27,-10.2 75.66,-39.99 98.99,-90.93 57.38,-125.49 53.31,-366.41 -11.54,-678.38 -56.78,-273.38 -146.07,-525.91 -201.24,-624.72 -41.89,-74.99 -91.08,-117.67 -146.25,-126.88 -75.54,-12.58 -145.28,39.91 -160.84,52.61zm425.33 1550.33l-88.59 0c-120.12,0 -229.27,-70.77 -278.09,-180.29 -69.44,-155.45 -162.49,-393.53 -211.42,-644.67 -60.19,-308.91 -38.22,-557.84 65.3,-739.84 7.18,-12.66 14.97,-25.05 23.14,-36.72 1.74,-2.52 3.77,-4.81 6.03,-6.86 4.31,-3.94 107.12,-95.94 231.86,-75.59 81.31,13.28 150.34,69.76 205.12,167.91 59.61,106.77 150.87,363.62 209.98,648.01 48.34,232.72 88.61,548.14 5.8,729.18 -35.14,76.8 -89.24,123.25 -160.85,138.02 -2.73,0.57 -5.49,0.85 -8.28,0.85z"/>
   <path class="fil3" d="M2927.5 7174.19c-5.83,0 -11.73,-1.36 -17.25,-4.26 -18.27,-9.57 -25.32,-32.09 -15.75,-50.36 155.75,-297.6 158.05,-632.27 6.83,-994.73 -114.06,-273.38 -277.38,-460.44 -279.04,-462.29 -13.6,-15.45 -12.13,-39.02 3.31,-52.63 15.45,-13.64 39,-12.17 52.64,3.28 6.97,7.87 172.07,196.65 291.05,480.82 70.22,167.68 109.37,333.6 116.42,493.19 8.86,200.64 -33.25,391.39 -125.13,566.97 -6.65,12.72 -19.63,20.01 -33.08,20.01z"/>
   <path class="fil3" d="M5484.29 7174.19c-13.42,0 -26.41,-7.29 -33.08,-20.01 -91.89,-175.58 -134,-366.33 -125.14,-566.97 7.06,-159.59 46.24,-325.51 116.44,-493.19 118.99,-284.17 284.1,-472.95 291.07,-480.82 13.64,-15.45 37.21,-16.92 52.62,-3.28 15.45,13.61 16.92,37.18 3.31,52.63l0 0c-1.64,1.85 -164.97,188.91 -279.03,462.29 -151.22,362.46 -148.91,697.13 6.84,994.73 9.54,18.27 2.48,40.79 -15.75,50.36 -5.53,2.9 -11.46,4.26 -17.28,4.26z"/>
   <path class="fil5" d="M5298.97 3730.42l0 0c-15.87,-42.52 -32.25,-85.28 -49.09,-128.26 26.57,-17.9 52.68,-36.47 78.33,-55.69 23.59,25.21 47.89,52.36 72.75,81.31 -32.86,35.71 -66.91,69.96 -101.99,102.64z"/>
   <path class="fil2 str0" d="M5400.96 3627.78c-24.86,-28.95 -49.16,-56.1 -72.75,-81.31 13.31,-9.97 26.46,-20.12 39.53,-30.46 21.98,23.6 44.21,48.51 66.66,74.51 -11.03,12.6 -22.15,25.01 -33.44,37.26z"/>
   <path class="fil5" d="M3098.62 3727.68c-46.97,-44.08 -92.03,-90.8 -135.03,-140.03 23.31,-7.36 47.18,-15.18 71.52,-23.44 32.64,23.71 65.97,46.35 99.98,67.89 -12.42,32 -24.59,63.84 -36.47,95.58l0 0z"/>
   <path class="fil2 str0" d="M2963.59 3587.65c-11.84,-13.56 -23.55,-27.31 -35.06,-41.26 19.41,-6.02 38.8,-12.19 58.11,-18.53 15.99,12.38 32.11,24.49 48.47,36.35 -24.34,8.26 -48.21,16.08 -71.52,23.44z"/>
   <path class="fil5" d="M4200.22 4180.3c-250.44,0 -488.78,-61.33 -705.07,-171.98 -142.88,-73.24 -276.04,-167.86 -396.53,-280.64l0 0c11.88,-31.74 24.05,-63.58 36.47,-95.58 108.92,69.09 224.62,127.06 346.25,173.41 219.82,83.75 450.29,126.07 686.26,126.07 23.82,0 47.72,-0.43 71.6,-1.31 260.94,-9.4 512.22,-69.63 746.91,-179.05 92.18,-42.98 180.22,-92.74 263.77,-149.06 16.84,42.98 33.22,85.74 49.09,128.26l0 0c-111.9,104.19 -234.51,192.86 -365.69,263.08 -221.56,118.87 -467.4,185.54 -726.28,186.8 -2.24,0 -4.54,0 -6.78,0z"/>
   <path class="fil4" d="M6044.16 2389.75c-21.05,2.27 -39.94,-12.96 -42.22,-34.01l-117.97 -1097.86c-2.27,-21.03 12.95,-39.89 34.01,-42.2l0 0c220.82,-23.7 419.07,136.12 442.85,356.93l40.19 374.32c23.7,220.83 -136.05,419.09 -356.86,442.82z"/>
   <path class="fil3" d="M5961.26 1222.84c-13.97,0 -28.08,0.74 -42.27,2.23 -7.65,0.83 -14.54,4.62 -19.38,10.66 -4.87,5.97 -7.05,13.5 -6.24,21.18l117.98 1097.82c0.82,7.66 4.56,14.54 10.58,19.38 6.01,4.85 13.53,7.06 21.22,6.23 104.3,-11.2 197.96,-62.35 263.79,-144.02 65.82,-81.66 95.86,-184.08 84.68,-288.38l-40.25 -374.36c-21.55,-201.05 -192.25,-350.74 -390.11,-350.74zm78.71 1176.59c-10.88,0 -21.33,-3.69 -29.91,-10.58 -9.92,-8.01 -16.15,-19.41 -17.52,-32.1l-117.98 -1097.84c-1.33,-12.67 2.31,-25.12 10.31,-35.03 8.02,-9.99 19.41,-16.18 32.1,-17.59 225.69,-24.23 428.96,139.62 453.18,365.27l40.26 374.38c11.78,109.31 -19.76,216.64 -88.79,302.25 -68.95,85.59 -167.15,139.21 -276.45,150.97l-1.01 -9.41 1.01 9.41c-1.75,0.16 -3.47,0.27 -5.2,0.27z"/>
   <path class="fil5" d="M6075.05 2331.6c15.23,-87.32 24.41,-175.85 27.45,-265.2 102.98,-29.66 187.52,-98.83 238.2,-188.56l7.99 74.72c9.98,92.82 -16.78,184 -75.37,256.7 -50.77,63.01 -120.21,105.61 -198.27,122.34z"/>
   <path class="fil2" d="M5937.83 1266.74l114.85 1068.91c87.14,-12.91 165.03,-57.41 220.64,-126.39 58.59,-72.7 85.35,-163.88 75.37,-256.7l-40.19 -374.36c-20.12,-186.89 -184.79,-323.91 -370.67,-311.46zm100.72 1070.71l-0.03 0 0.03 0zm1.34 105.12c-20.67,0 -40.57,-6.97 -56.89,-20.12 -18.93,-15.25 -30.76,-36.94 -33.36,-61.11l-117.97 -1097.8c-2.6,-24.16 4.38,-47.86 19.61,-66.79 15.25,-18.87 36.92,-30.79 61.1,-33.33 249.25,-26.76 473.95,154.24 500.71,403.52l40.25 374.39c12.98,120.76 -21.83,239.36 -98.1,333.92 -76.18,94.6 -184.69,153.82 -305.48,166.81 -3.31,0.35 -6.59,0.51 -9.87,0.51z"/>
   <path class="fil4" d="M2294.36 1605.11c21.06,-2.31 39.94,12.97 42.21,34l117.98 1097.83c2.26,21.06 -12.97,39.94 -34.02,42.21 -220.82,23.73 -419.09,-136.06 -442.82,-356.9l-40.21 -374.33c-23.73,-220.82 136.03,-419.1 356.86,-442.81z"/>
   <path class="fil3" d="M2298.48 1614.35c-1.03,0 -2.07,0.08 -3.1,0.15 -215.31,23.11 -371.64,217.11 -348.48,432.41l40.21 374.34c23.13,215.3 217.09,371.63 432.41,348.49 15.83,-1.68 27.31,-15.95 25.62,-31.79l-117.97 -1097.81c-1.59,-14.83 -14.14,-25.79 -28.69,-25.79zm78.78 1176.56c-207.43,0.03 -386.29,-156.84 -408.93,-367.64l-40.24 -374.33c-24.25,-225.67 139.6,-429 365.26,-453.22l1.01 9.39 -1.01 -9.39c26.19,-2.83 49.79,16.17 52.63,42.42l117.94 1097.79c2.81,26.19 -16.18,49.78 -42.4,52.6 -14.85,1.61 -29.64,2.38 -44.26,2.38z"/>
   <path class="fil5" d="M2377.28 2728.88c-176.12,-0.03 -328.02,-133.23 -347.27,-312.23l-7.78 -72.64c70,70.29 165.5,114.31 269.31,118.3 22.37,90.71 51.35,179.67 86.87,266.57 -0.37,0 -0.74,0 -1.13,0z"/>
   <path class="fil2" d="M2285.83 1659.23c-184.3,27.36 -316.13,196.17 -296.04,383.06l40.22 374.36c20.09,186.87 184.79,323.87 370.68,311.43l-114.86 -1068.85zm91.4 1174.85c-229.16,0.03 -426.78,-173.3 -451.82,-406.19l-40.22 -374.36c-26.79,-249.31 154.22,-473.92 403.54,-500.75 49.83,-5.3 94.79,30.86 100.14,80.73l117.97 1097.8c5.37,49.86 -30.83,94.79 -80.7,100.15 -16.4,1.75 -32.78,2.62 -48.91,2.62z"/>
   <path class="fil4" d="M6049.78 1929.57c37.49,1038.48 -773.98,1910.66 -1812.46,1948.15 -1038.47,37.46 -1910.68,-774.01 -1948.15,-1812.49 -37.46,-1038.45 774.01,-1910.64 1812.49,-1948.14 1038.45,-37.49 1910.67,774.02 1948.12,1812.48z"/>
   <path class="fil3" d="M4170.36 125.29c-22.75,0 -45.46,0.45 -68.37,1.27 -1031.59,37.2 -1840.58,906.71 -1803.37,1938.34 18.02,499.72 229.58,962.52 595.69,1303.13 349.15,324.85 799.08,501.49 1273.49,501.49 23.02,0 46.06,-0.41 69.17,-1.25 499.73,-18.02 962.52,-229.57 1303.15,-595.69 340.59,-366.11 518.25,-842.94 500.23,-1342.69 -36.38,-1008.66 -868.69,-1804.6 -1869.99,-1804.6zm-2.73 3763.12c-230.7,0 -456.05,-41.36 -670.92,-123.22 -228.45,-87.08 -435.47,-216.03 -615.28,-383.33 -179.81,-167.29 -323.35,-364.46 -426.67,-586.06 -106.93,-229.43 -165.84,-475.11 -175.03,-730.22 -9.21,-255.1 31.83,-504.45 121.96,-740.92 87.09,-228.48 216.05,-435.49 383.34,-615.29 167.29,-179.82 364.47,-323.39 586.06,-426.71 229.43,-106.9 475.11,-165.79 730.21,-175.04 255.11,-9.16 504.4,31.84 740.94,122.04 228.48,86.99 435.5,215.96 615.28,383.31 179.82,167.28 323.38,364.46 426.67,586.01 106.96,229.46 165.84,475.16 175.06,730.26 9.18,255.11 -31.85,504.39 -122,740.93 -87.04,228.46 -216,435.48 -383.3,615.29 -167.29,179.82 -364.47,323.35 -586.08,426.64 -229.42,106.95 -475.12,165.84 -730.22,175.06 -23.38,0.84 -46.73,1.25 -70.02,1.25z"/>
   <path class="fil5" d="M4167.85 3826.38c-410.95,-0.03 -803.06,-135.66 -1124.46,-387.63 62.99,31.2 130.16,60.78 199.56,87.55 206.68,79.69 518.05,168.93 876.07,168.93 41.75,0 84.18,-1.2 127.1,-3.8 441.98,-26.6 796.63,-163.44 1016.31,-273.54 55.74,-27.93 109.35,-57.49 159.97,-87.98 -322.67,304.27 -739.68,479.11 -1186.97,495.24 -22.61,0.82 -45.1,1.23 -67.58,1.23z"/>
   <path class="fil2" d="M4170.34 168.45c-22.23,0 -44.4,0.38 -66.79,1.2 -1007.83,36.37 -1798.17,885.83 -1761.81,1893.69 17.61,488.21 224.3,940.32 581.95,1273.1 341.13,317.37 780.7,489.91 1244.16,489.94 22.48,0 44.97,-0.41 67.58,-1.23 488.21,-17.61 940.33,-224.3 1273.08,-581.95 332.76,-357.69 506.34,-823.54 488.74,-1311.75 -35.58,-985.4 -848.67,-1763 -1826.91,-1763zm-2.74 3763.13c-235.97,0 -466.44,-42.32 -686.26,-126.07 -233.67,-89.06 -445.42,-220.95 -629.31,-392.04 -183.88,-171.1 -330.69,-372.79 -436.36,-599.43 -109.42,-234.72 -169.64,-485.99 -179.05,-746.9 -9.43,-260.93 32.56,-515.93 124.75,-757.83 89.04,-233.7 220.96,-445.49 392.06,-629.32 171.09,-183.91 372.77,-330.76 599.42,-436.39 234.68,-109.43 485.99,-169.67 746.89,-179.06 260.94,-9.39 515.91,32.57 757.86,124.79 233.7,89.01 445.42,220.96 629.31,392.03 183.92,171.09 330.73,372.74 436.4,599.43 109.39,234.68 169.64,485.97 179.05,746.89 9.41,260.9 -32.56,515.88 -124.78,757.86 -89.04,233.67 -220.95,445.43 -392.05,629.31 -171.07,183.89 -372.75,330.7 -599.42,436.37 -234.69,109.42 -485.97,169.65 -746.91,179.05 -23.88,0.88 -47.78,1.31 -71.6,1.31z"/>
   <path class="fil13" d="M6045.52 1978.06c18.84,367.73 -83.06,715.22 -272.72,1008.11 -142.19,219.6 -752.36,622.42 -1528.86,669.2 -719.97,43.35 -1395.04,-307.14 -1558.92,-511.07 -218.62,-271.97 -355.44,-607.25 -374.28,-974.97 -49.82,-973.03 765.53,-1419.27 1796.91,-1472.04 1031.36,-52.86 1888.03,307.73 1937.87,1280.77z"/>
   <path class="fil2" d="M4299.85 728.37c-62.26,0 -125.69,1.64 -190.34,4.99 -535.51,27.44 -979.65,160.21 -1284.37,383.99 -340.28,249.88 -501.2,603.15 -478.32,1050.16 17.86,348.2 144.52,678.13 366.36,954.15 66.02,82.13 251.17,219.71 555.76,337.19 224.11,86.42 574.76,184.4 972.84,160.43 429.75,-25.89 774.61,-158.95 988.28,-266.02 286.27,-143.48 454.93,-298 512.4,-386.72 192.47,-297.24 284.79,-638.41 266.97,-986.61l0 0c-22.88,-446.98 -219.07,-781.99 -583.08,-995.79 -286.63,-168.32 -673.35,-255.77 -1126.5,-255.77zm-180.83 2966.86c-358.02,0 -669.39,-89.24 -876.07,-168.93 -261.73,-100.94 -491.79,-241.99 -586.09,-359.33 -231.43,-287.97 -363.6,-632.29 -382.21,-995.77 -12.36,-241.2 27.39,-460.08 118.16,-650.48 85.44,-179.28 216.48,-334.56 389.53,-461.66 316.17,-232.14 773.81,-369.75 1323.45,-397.93 549.66,-28.1 1018.96,62.02 1357.17,260.69 185.13,108.69 331.36,249.81 434.65,419.4 109.74,180.17 171.67,393.82 184,635.02 18.62,363.48 -77.67,719.5 -278.46,1029.58 -83.43,128.83 -290.62,286.75 -540.72,412.07 -219.68,110.1 -574.33,246.94 -1016.31,273.54 -42.92,2.6 -85.35,3.8 -127.1,3.8z"/>
   <path class="fil14" d="M5412 2208.68c-7.52,0 -15.09,-0.49 -22.69,-1.48 -132.16,-17 -220.25,-178.66 -196.77,-361.04 22.16,-171.95 135.5,-300.91 259.13,-300.91 7.55,0 15.13,0.52 22.7,1.49 106.81,13.71 184.84,121.96 198.45,259.25 -9.98,82.05 -24.69,162.89 -43.85,242.21 -48.69,97.11 -130.3,160.48 -216.97,160.48z"/>
   <path class="fil14" d="M5160.18 2702.27c-10.01,0 -20.1,-1.31 -30.08,-4.04 -69.85,-19.09 -108.45,-100.56 -86.23,-181.98 19.08,-69.79 76.67,-116.9 136.76,-116.9 10,0 20.06,1.31 30.04,4.04 69.88,19.09 108.49,100.56 86.23,181.98 -19.05,69.8 -76.66,116.9 -136.72,116.9z"/>
   <path class="fil15" d="M4118.94 3622.94c-202.48,0 -389.76,-29.52 -550.52,-69.5 904.16,-103.09 1600.97,-571.8 1770.99,-834.41 132.74,-204.99 231.6,-431.04 289.56,-670.83 20.78,-41.42 35.54,-88.99 42.17,-140.4 4.51,-34.99 4.92,-69.22 1.68,-101.81 14.55,-119.77 19.04,-242.18 12.66,-366.37 -5.16,-101.98 -17.46,-198.67 -36.2,-290.29 221.6,207.39 342.49,485.67 360.15,830.6l0 0c17.82,348.2 -74.5,689.37 -266.97,986.61 -57.47,88.72 -226.13,243.24 -512.4,386.72 -213.67,107.07 -558.53,240.13 -988.28,266.02 -41.51,2.48 -82.46,3.66 -122.84,3.66z"/>
   <path class="fil2" d="M4120.3 3659.11c-230.61,0 -453.65,-37.97 -653.58,-95.71 34.17,-2.79 68.1,-6.12 101.7,-9.96 160.76,39.98 348.04,69.5 550.52,69.5 40.38,0 81.33,-1.18 122.84,-3.66 429.75,-25.89 774.61,-158.95 988.28,-266.02 286.27,-143.48 454.93,-298 512.4,-386.72 192.47,-297.24 284.79,-638.41 266.97,-986.61l0 0c-17.66,-344.93 -138.55,-623.21 -360.15,-830.6 -4.15,-20.35 -8.66,-40.55 -13.44,-60.46 239.44,206.21 389.58,498.35 409.65,889.14 18.84,367.81 -83.11,715.27 -272.63,1008.16 -142.25,219.6 -752.47,622.42 -1528.95,669.25 -41.36,2.52 -82.62,3.69 -123.61,3.69z"/>
   <path class="fil14" d="M5628.97 2048.2c19.16,-79.32 33.87,-160.16 43.85,-242.21 3.24,32.59 2.83,66.82 -1.68,101.81 -6.63,51.41 -21.39,98.98 -42.17,140.4z"/>
   <path class="fil2 str0" d="M2408.89 1382.96c-10.58,0 -21.27,-3.28 -30.37,-10.14 -21.49,-16.17 -26.45,-46.14 -11.82,-68.28 78.08,-128.29 177.79,-245.55 296.34,-348.43 115.42,-100.19 249.67,-187.63 398.97,-259.94 146.21,-70.75 307.76,-127.48 480.22,-168.55 170.9,-40.7 353.37,-66.2 542.31,-75.89 185.86,-9.54 367.97,-3.13 541.27,19.09 174.93,22.36 341.18,60.75 494.23,114.27 156.57,54.72 299.83,125.31 425.79,209.93 129.51,86.99 241.55,189.34 333.03,304.14 15.97,17.67 17.6,44.81 2.65,64.48 -16.9,22.22 -48.64,26.55 -70.89,9.62l-5.31 -3.95 -3.99 -5.07c-338.74,-426.92 -962.58,-649.82 -1711.58,-611.43 -753.16,38.55 -1349.96,332.18 -1637.36,805.56l-1.31 2.16 -1.69 2.3c-9.95,13.2 -25.13,20.13 -40.49,20.13z"/>
   <path class="fil4" d="M2759.77 2726.74c0,0 -350.53,-944.51 147.22,-1353.54 392.9,-322.86 939.5,-413.66 1144.97,-413.66 54.82,0 85.32,6.48 82.18,16.7 0,0 -813.77,241.67 -1102.81,909.61 -222.9,515.06 -271.56,840.89 -271.56,840.89z"/>
   <path class="fil2" d="M6200.19 5961.23c-1.1,8.32 -2.65,17.18 -4.31,25.73 -1.63,8.67 -3.52,17.23 -5.34,25.86 -3.81,17.17 -7.99,34.26 -12.4,51.33 -8.69,34.12 -18.86,67.94 -28.43,101.97 -9.49,34.04 -18.89,68.16 -27.88,102.55l-6.52 25.87c-2.31,8.64 -4.28,17.3 -6.39,25.99l-3.11 13.08 -1.61 6.56 -1.43 6.56c-1.86,8.77 -3.88,17.58 -6.09,26.46l-0.09 0.31c-0.79,3.19 -4.02,5.13 -7.21,4.34 -2.33,-0.57 -4,-2.44 -4.41,-4.65 -3.52,-18.04 -6.67,-36.42 -8.23,-54.73l-1.39 -13.81c-0.41,-4.62 -0.58,-9.19 -0.87,-13.8 -0.47,-9.16 -0.99,-18.4 -1.24,-27.61 -0.79,-36.84 0.61,-73.58 3.5,-110.13 3.12,-36.5 7.36,-72.92 14.49,-108.7 3.5,-17.91 7.61,-35.68 12.49,-53.27 2.44,-8.78 5.06,-17.54 7.94,-26.24 2.9,-8.78 5.96,-17.23 9.67,-26.16 8.78,-21.06 32.96,-31.01 53.98,-22.27 17.65,7.37 27.49,25.52 25.03,43.62l-0.15 1.14z"/>
   <path class="fil2" d="M2278.84 5938.74c3.74,8.93 6.8,17.38 9.7,26.16 2.87,8.7 5.49,17.46 7.92,26.24 4.9,17.59 9,35.36 12.49,53.27 7.15,35.78 11.35,72.2 14.5,108.7 2.87,36.55 4.3,73.29 3.49,110.13 -0.23,9.21 -0.76,18.45 -1.22,27.63 -0.3,4.59 -0.47,9.16 -0.88,13.78l-1.42 13.81c-1.53,18.31 -4.67,36.69 -8.2,54.73 -0.63,3.26 -3.74,5.36 -7,4.74 -2.32,-0.48 -4.1,-2.25 -4.65,-4.43l-0.05 -0.31c-2.21,-8.88 -4.24,-17.69 -6.1,-26.46l-1.42 -6.56 -1.61 -6.56 -3.11 -13.08c-2.11,-8.69 -4.08,-17.35 -6.41,-25.99l-6.51 -25.87c-8.99,-34.39 -18.39,-68.51 -27.88,-102.55 -9.6,-34.03 -19.74,-67.85 -28.44,-101.97 -4.4,-17.07 -8.58,-34.16 -12.38,-51.33 -1.83,-8.6 -3.72,-17.19 -5.36,-25.86 -1.64,-8.55 -3.2,-17.41 -4.31,-25.73l-0.17 -1.11c-3.06,-22.58 12.79,-43.39 35.37,-46.43 18.96,-2.57 36.64,8.21 43.65,25.05z"/>
   <path class="fil16" d="M5874.67 7319.89l-3337.02 0c-108.04,0 -195.64,-87.6 -195.64,-195.65 0,-62.25 50.47,-112.72 112.72,-112.72l3502.87 0c62.24,0 112.69,50.47 112.69,112.72 0,108.05 -87.57,195.65 -195.62,195.65z"/>
   <path class="fil17" d="M2402 7131.74c-3.5,-3.4 -6.92,-6.92 -10.17,-10.55 1.61,-33.31 29.19,-59.94 62.9,-59.94l3502.87 0c33.65,0 61.24,26.58 62.88,59.85 -2.43,2.73 -4.95,5.41 -7.54,8.01 -0.88,0.88 -1.75,1.72 -2.66,2.6 -15.69,-8.34 -33.62,-13.04 -52.68,-13.04l-3502.81 0c-19.06,0 -37.02,4.7 -52.79,13.07z"/>
   <path class="fil18" d="M5874.67 7270.15l-3337.02 0c-75.97,0 -138.59,-58.39 -145.3,-132.64 3.11,-2.09 6.34,-4 9.65,-5.77 35.19,33.84 83.06,54.68 135.71,54.68l3336.96 0c52.64,0 100.53,-20.81 135.61,-54.71 3.33,1.75 6.56,3.69 9.68,5.76 -6.7,74.29 -69.31,132.68 -145.29,132.68z"/>
   <path class="fil19" d="M2392.35 7137.51c-0.39,-4.38 -0.6,-8.78 -0.6,-13.27 0,-1 0.02,-2.04 0.08,-3.05 3.25,3.63 6.67,7.15 10.17,10.55 -3.31,1.77 -6.54,3.68 -9.65,5.77zm3627.61 -0.04c-3.12,-2.07 -6.35,-4.01 -9.68,-5.76 0.91,-0.88 1.78,-1.72 2.66,-2.6 2.59,-2.6 5.11,-5.28 7.54,-8.01 0.05,1.04 0.08,2.11 0.08,3.14 0,4.47 -0.19,8.89 -0.6,13.23z"/>
   <path class="fil2" d="M2454.73 7061.25c-34.71,0 -62.98,28.27 -62.98,62.99 0,80.46 65.44,145.91 145.9,145.91l3337.02 0c80.44,0 145.89,-65.45 145.89,-145.91 0,-34.72 -28.24,-62.99 -62.96,-62.99l-3502.87 0zm3419.94 308.37l-3337.02 0c-135.3,0 -245.37,-110.08 -245.37,-245.38 0,-89.56 72.86,-162.44 162.45,-162.44l3502.87 0c89.56,0 162.45,72.88 162.45,162.44 0,135.3 -110.1,245.38 -245.38,245.38z"/>
   <path class="fil20" d="M6265.12 4808.89l-326.42 2202.58 -3465.02 0 -11.81 -79.7 -314.71 -2122.88c-10.33,-69.75 43.77,-132.3 114.14,-132.3l3889.64 0c70.5,0 124.47,62.55 114.18,132.3z"/>
   <path class="fil16" d="M6265.12 4808.89l-326.42 2202.58 -3465.02 0 -11.81 -79.7 -314.71 -2122.88c-10.33,-69.75 43.77,-132.3 114.14,-132.3l3889.64 0c70.5,0 124.47,62.55 114.18,132.3z"/>
   <path class="fil21" d="M2511.96 6930.51l-315.56 -2128.95c-2.84,-19.17 2.57,-37.8 15.23,-52.49 12.66,-14.68 30.3,-22.74 49.67,-22.74l3519.21 0c5.83,27.17 10.92,56.28 15.07,86.96l-3411.24 0c-70.37,0 -124.46,62.55 -114.15,132.3l294.04 1983.42c-19.11,0.55 -36.58,1.04 -52.27,1.5zm3702.24 -2117.22l-59.13 0 0.66 -4.4c4.51,-30.43 -3.23,-59.49 -19.22,-82.56l14.49 0c19.39,0 37.04,8.06 49.71,22.74 12.67,14.69 18.04,33.32 15.21,52.49l-1.72 11.73z"/>
   <path class="fil18" d="M5836.7 6961.8l-3267.63 0 -4.84 -32.79c449.53,-12.42 1805.06,-47.41 2582.52,-568.45 177,-118.6 311.07,-265.85 410.7,-425.41 11.1,13.79 23.27,26.49 36.48,37.95 0,0.03 0,0.03 0.02,0.03 0.05,0.05 0.13,0.1 0.19,0.17 10.53,9.13 21.71,17.46 33.6,24.98 74.09,46.75 139.1,59.71 197.29,59.71 36.16,0 69.71,-5 101.13,-10.03 16.21,-2.57 31.85,-5.16 47.02,-7.06l-136.48 920.9zm307.13 -2072.53c-50.11,-13.15 -114.82,-24.91 -186.15,-24.91 -49.13,0 -101.44,5.57 -154.28,20.12 -2.08,-24.58 -4.7,-48.34 -7.82,-71.19l359.49 0 -11.24 75.98z"/>
   <path class="fil22" d="M2569.07 6961.8l-52.49 0 -4.62 -31.29c15.69,-0.46 33.16,-0.95 52.27,-1.5l4.84 32.79zm3586 -2148.51l-359.49 0c-4.15,-30.68 -9.24,-59.79 -15.07,-86.96l356 0c15.99,23.07 23.73,52.13 19.22,82.56l-0.66 4.4z"/>
   <path class="fil2" d="M2516.58 6961.8l3379.14 0 320.2 -2160.24c2.83,-19.17 -2.54,-37.8 -15.21,-52.49 -12.67,-14.68 -30.32,-22.74 -49.71,-22.74l-3889.7 0c-19.37,0 -37.01,8.06 -49.67,22.74 -12.66,14.69 -18.07,33.32 -15.23,52.49l320.18 2160.24zm3464.96 99.45l-3550.78 0 -332.75 -2245.11c-7.06,-47.52 6.91,-95.67 38.3,-132.05 31.38,-36.37 76.96,-57.26 124.99,-57.26l3889.7 0c48.06,0 93.62,20.89 125,57.26 31.39,36.38 45.33,84.53 38.32,132.05l-332.78 2245.11z"/>
   <path class="fil17" d="M2798.26 6549.69c-16.73,0 -34.5,-21.35 -48.77,-52.81 -131.45,-289.75 -227.17,-784.35 -205.6,-1075.44 8.69,-117.45 41.36,-173.03 80.71,-173.03 58.13,0 130.79,121.44 162.01,343.87 105.37,750.84 63.63,957.41 11.65,957.41z"/>
   <path class="fil3" d="M4568.35 5673.62c-42.35,-55.45 -83.65,-109.39 -125.05,-163.57 0.05,-1.24 0.38,-2.68 0.6,-4.03 48.2,5.78 96.51,11.68 145.31,17.53 -0.93,52.58 -8.69,100.72 -20.86,150.07zm-25.43 77.45c-25.01,59.04 -57.81,112.79 -104.6,157.29 -36.11,34.15 -77.1,61.54 -120.21,85.9 -116.96,66.03 -242.31,111.55 -370.49,150.04 -6.26,1.81 -10.08,1.48 -14.21,-4.26 -8.94,-12.72 -18.97,-24.96 -28.43,-37.51 -0.66,-0.71 -0.85,-1.86 -1.76,-4.13 3.27,-2.62 6.79,-5.22 10.31,-7.93 73.13,-56.16 146.63,-112.12 219.79,-168.39 21.16,-16.04 22.06,-43.63 2.49,-59.57 -13.67,-11.18 -31.66,-11.01 -47.44,0.85 -44.01,33.57 -87.92,67.15 -131.83,100.85 -32.75,25.05 -65.24,49.98 -99.24,76.06 -11.68,-15.23 -22.94,-29.17 -33.12,-43.79 -1.72,-2.66 0.04,-9.24 2.41,-12.53 38.97,-58.17 77.62,-116.65 118.22,-173.82 40.14,-56.76 85.76,-109.2 135.96,-157.32 47.06,-45.46 98.06,-85.6 159.72,-109.52 39.54,-15.39 80.33,-25.83 122.46,-30.35 3.82,-0.54 9.37,3.28 12.08,6.82 42.84,55.38 85.16,110.85 127.62,166.44 12.74,16.54 25.3,33.41 38.43,49.75 3.9,4.96 4.36,9.14 1.84,15.12zm-286.98 422.84c-13.97,44.59 -40.66,80.9 -73.52,113.3 -40.84,39.78 -88.39,69.44 -139.78,96.54 -3.1,-63.16 -6.27,-124.92 -9.39,-185.45 77.74,-30.23 153.7,-59.74 230.13,-89.43 2.94,21.05 -0.69,43.34 -7.44,65.04zm-462.48 -282.58c-54.99,-17.91 -111.99,-36.49 -170.55,-55.56 60.53,-64.3 124.54,-120.46 210.79,-144.16 37.24,-10.26 80.33,-9.38 105.73,0.96 -48.26,65.88 -96.65,131.77 -145.97,198.76zm865.41 -297.22c4.21,-37.17 9.13,-74.77 1.87,-112.58 -3.27,-4.1 -6.24,-8.31 -9.5,-12.41 -10.79,-3.89 -21.26,-8.97 -32.44,-11.76 -78.85,-20.4 -158.8,-28.43 -239.99,-21.46 -105.9,9.13 -203.09,41.8 -286.67,109.11 -30.24,24.31 -57.85,51.73 -86.08,78.3 -7.58,7.22 -13.4,10.24 -24.04,5.4 -24.99,-11.41 -51.98,-16.47 -79.34,-17.86 -73.43,-3.31 -138.92,20.4 -200.02,58.75 -66.22,41.73 -119.58,97.47 -169.29,157.15 -21.16,25.29 -12.92,53.51 18.57,64.11 19.88,6.51 39.75,12.87 59.62,19.36 47.63,15.42 95.14,30.7 142.64,46.1 -0.08,1.47 0.05,2.26 -0.2,2.97 -0.37,0.93 -0.78,2 -1.44,2.9 -19.82,25.49 -15.01,49.05 5.88,71.2 2.27,2.46 4.17,5.36 6.17,8.03 10.94,14.38 22.09,28.93 33.71,43.91 -15.83,12.22 -31.38,22.61 -45.13,35.16 -6.95,6.32 -13.07,15.51 -15.7,24.6 -4.45,14.69 3.15,29.7 16.21,37.4 13.84,8.35 28.14,7.99 41.02,-1.31 16.37,-11.64 32.01,-24.27 48.66,-36.99 15.72,20.73 30.62,40.33 45.58,59.69 17.14,22.06 28.92,25.83 55.52,18.48 4.84,-1.5 9.6,-2.55 15.31,-3.94 0.41,5.69 0.83,10.26 1.06,14.52 3.37,68.7 6.51,137.47 10.28,205.95 1.73,32.48 27.37,47.84 56.71,33.9 26.47,-12.49 52.93,-25.73 78.9,-39.81 59.85,-32.53 114.31,-72.42 157.76,-125.4 54.4,-66.74 84.48,-141.24 70.39,-229.25 -0.59,-3.46 2.31,-9.41 5.31,-11.2 26.71,-17.2 54.11,-33.31 80.82,-50.61 60.36,-39.35 108.89,-90.48 146.82,-151.55 51.58,-83.01 80.07,-174.1 91.03,-270.86z"/>
   <path class="fil4" d="M4412.71 5820.6c-55.92,42.13 -135.04,31.82 -177.03,-23.32 -42.27,-55.06 -31.61,-134.13 23.79,-176.83 54.37,-41.89 133.52,-31.06 175.92,24.03 41.94,54.76 31.73,135 -22.68,176.12zm128.37 -84.65c-13.13,-16.34 -25.69,-33.21 -38.43,-49.75 -42.46,-55.59 -84.78,-111.06 -127.62,-166.44 -2.71,-3.54 -8.26,-7.36 -12.08,-6.82 -42.13,4.52 -82.92,14.96 -122.46,30.35 -61.66,23.92 -112.66,64.06 -159.72,109.52 -50.2,48.12 -95.82,100.56 -135.96,157.32 -40.6,57.17 -79.25,115.65 -118.22,173.82 -2.37,3.29 -4.13,9.87 -2.41,12.53 10.18,14.62 21.44,28.56 33.12,43.79 34,-26.08 66.49,-51.01 99.24,-76.06 43.91,-33.7 87.82,-67.28 131.83,-100.85 15.78,-11.86 33.77,-12.03 47.44,-0.85 19.57,15.94 18.67,43.53 -2.49,59.57 -73.16,56.27 -146.66,112.23 -219.79,168.39 -3.52,2.71 -7.04,5.31 -10.31,7.93 0.91,2.27 1.1,3.42 1.76,4.13 9.46,12.55 19.49,24.79 28.43,37.51 4.13,5.74 7.95,6.07 14.21,4.26 128.18,-38.49 253.53,-84.01 370.49,-150.04 43.11,-24.36 84.1,-51.75 120.21,-85.9 46.79,-44.5 79.59,-98.25 104.6,-157.29 2.52,-5.98 2.06,-10.16 -1.84,-15.12z"/>
   <path class="fil23" d="M4568.35 5673.59c-42.38,-55.36 -83.69,-109.38 -125.08,-163.54 0.14,-1.29 0.41,-2.63 0.6,-4.03 48.2,5.83 96.51,11.71 145.39,17.56 -0.92,52.49 -8.74,100.67 -20.91,150.01z"/>
   <path class="fil23" d="M3939.48 5692.6c-48.34,65.8 -96.73,131.74 -145.98,198.78 -55.07,-18.02 -112.05,-36.52 -170.59,-55.58 60.56,-64.36 124.56,-120.54 210.81,-144.16 37.22,-10.31 80.24,-9.41 105.76,0.96z"/>
   <path class="fil23" d="M4182.36 6287.21c-40.84,39.81 -88.33,69.52 -139.79,96.54 -3.11,-63.13 -6.23,-124.89 -9.32,-185.45 77.74,-30.21 153.68,-59.68 230.18,-89.48 2.92,21.1 -0.76,43.35 -7.47,65.15 -13.97,44.59 -40.64,80.86 -73.6,113.24z"/>
   <path class="fil3" d="M4375 5774.09c-28.32,21.44 -69.91,15.8 -92,-12.49 -22.82,-29.17 -16.59,-72.06 13.62,-94.49 28.3,-21.19 70.7,-15.06 92,13.37 22.28,29.58 16.13,71.11 -13.62,93.61zm60.39 -129.61c-42.4,-55.09 -121.55,-65.92 -175.92,-24.03 -55.4,42.7 -66.06,121.77 -23.79,176.83 41.99,55.14 121.11,65.45 177.03,23.32 54.41,-41.12 64.62,-121.36 22.68,-176.12z"/>
   <path class="fil6" d="M4375 5774.09c-28.35,21.44 -69.93,15.78 -92.05,-12.54 -22.72,-29.12 -16.56,-71.99 13.64,-94.41 28.36,-21.16 70.7,-15.07 92,13.32 22.26,29.6 16.21,71.19 -13.59,93.63z"/>
   <path class="fil4" d="M6247.9 4925.11c0,0 -268.54,-127.43 -520.72,-13.12 -241.49,109.47 -412.34,888.82 -99.46,1086.23 120.15,75.84 216.47,62.78 298.38,49.74 49.73,-7.93 94.16,-15.86 135.42,-3.92 162.08,46.87 494.55,-755.61 186.38,-1118.93z"/>
   <path class="fil18" d="M5973.18 6040.9l0 -0.02c11.21,-1.39 22.18,-2.41 32.92,-2.79 -10.72,0.38 -21.71,1.4 -32.92,2.81z"/>
   <path class="fil24" d="M5825.03 6057.99c-58.19,0 -123.2,-12.96 -197.29,-59.71 -11.89,-7.52 -23.07,-15.85 -33.6,-24.98 10.5,9.1 21.68,17.43 33.58,24.92 74.09,46.78 139.12,59.74 197.33,59.74 36.14,0 69.67,-4.99 101.05,-10 16.24,-2.6 31.91,-5.16 47.08,-7.08l0 0.02c-15.17,1.9 -30.81,4.49 -47.02,7.06 -31.42,5.03 -64.97,10.03 -101.13,10.03zm-231.08 -84.86c-0.02,0 -0.02,0 -0.02,-0.03 0,0.03 0,0.03 0.02,0.03z"/>
   <path class="fil5" d="M5825.05 6057.96c-58.21,0 -123.24,-12.96 -197.33,-59.74 -11.9,-7.49 -23.08,-15.82 -33.58,-24.92 -0.06,-0.07 -0.14,-0.12 -0.19,-0.17 -0.02,0 -0.02,0 -0.02,-0.03 -121.47,-105.56 -152.6,-314.16 -128.34,-519.81 17.77,130.43 68.13,242.2 162.15,301.52 92.93,58.6 170.96,75.88 239.36,75.88 73.71,0 136.29,-20.07 194.47,-30.13 138.62,-23.98 251.63,-175.44 307.46,-368.3 -30.41,312.2 -189.3,613.73 -293.41,613.73 -4.8,0 -9.49,-0.63 -14.05,-1.97 -15.2,-4.37 -30.81,-6.07 -46.98,-6.07 -2.81,0 -5.65,0.06 -8.49,0.14 -10.74,0.38 -21.71,1.4 -32.92,2.79 -15.17,1.92 -30.84,4.48 -47.08,7.08 -31.38,5.01 -64.91,10 -101.05,10z"/>
   <path class="fil2" d="M5957.03 4913.96c-75.6,0 -145.67,14.49 -209.32,43.33 -52.36,23.73 -107.91,95.67 -152.42,197.34 -45.83,104.65 -76.91,234.68 -85.31,356.7 -14.81,215.49 37.76,377.65 144.25,444.85 107.39,67.75 190.18,54.48 270.25,41.67 51.76,-8.29 100.65,-16.11 150.85,-1.59 5.76,1.01 47.15,-14.96 105.52,-116.09 136.15,-235.8 222.48,-681.14 36.26,-914.24 -21.14,-8.78 -75.46,-29.42 -146.54,-41.77 -39.07,-6.81 -76.96,-10.2 -113.54,-10.2zm-131.32 1193.6c-65.15,0 -140.56,-14.24 -224.55,-67.25 -75.21,-47.47 -129.53,-124.27 -161.43,-228.26 -26.79,-87.28 -36.83,-193.62 -28.99,-307.55 9.3,-134.92 42.46,-273.35 93.4,-389.76 38.96,-88.94 105.66,-204.18 202.51,-248.05 270.09,-122.43 550.79,7.87 562.57,13.48l9.69 4.59 6.93 8.18c141.05,166.27 149.17,395.98 131.13,559.42 -20.28,184.13 -85.28,379.45 -169.6,509.76 -84.48,130.49 -155.21,142.57 -199.66,129.69 -28.87,-8.34 -65.32,-2.49 -107.5,4.27 -33.44,5.35 -71.77,11.48 -114.5,11.48z"/>
  </g>
 </g>
</svg>
